<?xml version="1.0" encoding="UTF-8" standalone="no"?>
<!-- Created with Inkscape (http://www.inkscape.org/) -->

<svg
   width="1920mm"
   height="1080mm"
   viewBox="0 0 1920 1080"
   version="1.1"
   id="svg135"
   inkscape:version="1.2.2 (732a01da63, 2022-12-09)"
   sodipodi:docname="BKBGlight.svg"
   xmlns:inkscape="http://www.inkscape.org/namespaces/inkscape"
   xmlns:sodipodi="http://sodipodi.sourceforge.net/DTD/sodipodi-0.dtd"
   xmlns:xlink="http://www.w3.org/1999/xlink"
   xmlns="http://www.w3.org/2000/svg"
   xmlns:svg="http://www.w3.org/2000/svg">
  <sodipodi:namedview
     id="namedview137"
     pagecolor="#ffffff"
     bordercolor="#000000"
     borderopacity="0.25"
     inkscape:showpageshadow="2"
     inkscape:pageopacity="0.0"
     inkscape:pagecheckerboard="0"
     inkscape:deskcolor="#d1d1d1"
     inkscape:document-units="mm"
     showgrid="false"
     inkscape:zoom="0.12819038"
     inkscape:cx="3880.9463"
     inkscape:cy="2172.5498"
     inkscape:window-width="1920"
     inkscape:window-height="1001"
     inkscape:window-x="-9"
     inkscape:window-y="-9"
     inkscape:window-maximized="1"
     inkscape:current-layer="layer1" />
  <defs
     id="defs132">
    <inkscape:path-effect
       effect="spiro"
       id="path-effect6510"
       is_visible="true"
       lpeversion="1" />
    <inkscape:path-effect
       effect="spiro"
       id="path-effect6506"
       is_visible="true"
       lpeversion="1" />
    <inkscape:path-effect
       effect="spiro"
       id="path-effect5730"
       is_visible="true"
       lpeversion="1" />
    <inkscape:path-effect
       effect="spiro"
       id="path-effect5718"
       is_visible="true"
       lpeversion="1" />
    <inkscape:path-effect
       effect="spiro"
       id="path-effect5714"
       is_visible="true"
       lpeversion="1" />
    <inkscape:path-effect
       effect="spiro"
       id="path-effect5710"
       is_visible="true"
       lpeversion="1" />
    <inkscape:path-effect
       effect="spiro"
       id="path-effect5706"
       is_visible="true"
       lpeversion="1" />
    <inkscape:path-effect
       effect="spiro"
       id="path-effect4960"
       is_visible="true"
       lpeversion="1" />
    <inkscape:path-effect
       effect="spiro"
       id="path-effect4866"
       is_visible="true"
       lpeversion="1" />
    <inkscape:path-effect
       effect="spiro"
       id="path-effect4858"
       is_visible="true"
       lpeversion="1" />
    <inkscape:path-effect
       effect="spiro"
       id="path-effect4850"
       is_visible="true"
       lpeversion="1" />
    <inkscape:path-effect
       effect="spiro"
       id="path-effect4846"
       is_visible="true"
       lpeversion="1" />
    <inkscape:path-effect
       effect="spiro"
       id="path-effect4842"
       is_visible="true"
       lpeversion="1" />
    <linearGradient
       inkscape:collect="always"
       xlink:href="#linearGradient28881"
       id="linearGradient28875"
       x1="621.35742"
       y1="155.49438"
       x2="621.25409"
       y2="166.84059"
       gradientUnits="userSpaceOnUse"
       gradientTransform="matrix(2.1979859,0,0,2.1940425,58.49695,144.31151)" />
    <linearGradient
       inkscape:collect="always"
       id="linearGradient28881">
      <stop
         style="stop-color:#ffd42a;stop-opacity:1"
         offset="0"
         id="stop28877" />
      <stop
         style="stop-color:#ffeeaa;stop-opacity:1"
         offset="1"
         id="stop28879" />
    </linearGradient>
    <linearGradient
       inkscape:collect="always"
       xlink:href="#linearGradient19886"
       id="linearGradient19888"
       x1="2111.8164"
       y1="894.05627"
       x2="2462.8906"
       y2="764.43481"
       gradientUnits="userSpaceOnUse"
       gradientTransform="matrix(0.58155043,0,0,0.58050707,58.49695,144.31151)" />
    <linearGradient
       inkscape:collect="always"
       id="linearGradient19886">
      <stop
         style="stop-color:#ffff00;stop-opacity:1;"
         offset="0"
         id="stop19882" />
      <stop
         style="stop-color:#ff6600;stop-opacity:1"
         offset="1"
         id="stop19884" />
    </linearGradient>
    <linearGradient
       inkscape:collect="always"
       xlink:href="#linearGradient21695"
       id="linearGradient21697"
       x1="2123.4548"
       y1="756.27283"
       x2="2204.4607"
       y2="681.55603"
       gradientUnits="userSpaceOnUse"
       gradientTransform="matrix(0.58155043,0,0,0.58050707,58.49695,144.31151)" />
    <linearGradient
       inkscape:collect="always"
       id="linearGradient21695">
      <stop
         style="stop-color:#ffeeaa;stop-opacity:1"
         offset="0"
         id="stop21691" />
      <stop
         style="stop-color:#f4eed7;stop-opacity:1"
         offset="1"
         id="stop21693" />
    </linearGradient>
    <linearGradient
       inkscape:collect="always"
       xlink:href="#linearGradient25139"
       id="linearGradient25141"
       x1="2079.0947"
       y1="547.5722"
       x2="2278.4858"
       y2="756.78455"
       gradientUnits="userSpaceOnUse"
       gradientTransform="matrix(0.58155043,0,0,0.58050707,58.49695,144.31151)" />
    <linearGradient
       inkscape:collect="always"
       id="linearGradient25139">
      <stop
         style="stop-color:#502d16;stop-opacity:1"
         offset="0"
         id="stop25135" />
      <stop
         style="stop-color:#c87137;stop-opacity:1"
         offset="1"
         id="stop25137" />
    </linearGradient>
    <linearGradient
       inkscape:collect="always"
       xlink:href="#linearGradient25218"
       id="linearGradient25220"
       x1="2361.2024"
       y1="933.9613"
       x2="2386.7188"
       y2="957.8125"
       gradientUnits="userSpaceOnUse"
       gradientTransform="matrix(0.58155043,0,0,0.58050707,58.49695,144.31151)" />
    <linearGradient
       inkscape:collect="always"
       id="linearGradient25218">
      <stop
         style="stop-color:#c87137;stop-opacity:1"
         offset="0"
         id="stop25214" />
      <stop
         style="stop-color:#deaa87;stop-opacity:1"
         offset="1"
         id="stop25216" />
    </linearGradient>
    <linearGradient
       inkscape:collect="always"
       xlink:href="#linearGradient26094"
       id="linearGradient26096"
       x1="2059.5339"
       y1="548.53418"
       x2="2088.8457"
       y2="538.35553"
       gradientUnits="userSpaceOnUse"
       gradientTransform="matrix(0.58155043,0,0,0.58050707,58.49695,144.31151)" />
    <linearGradient
       inkscape:collect="always"
       id="linearGradient26094">
      <stop
         style="stop-color:#808080;stop-opacity:1;"
         offset="0"
         id="stop26090" />
      <stop
         style="stop-color:#808080;stop-opacity:0;"
         offset="1"
         id="stop26092" />
    </linearGradient>
    <linearGradient
       inkscape:collect="always"
       xlink:href="#linearGradient26175"
       id="linearGradient26177"
       x1="2371.2891"
       y1="971.96686"
       x2="2426.8496"
       y2="961.49847"
       gradientUnits="userSpaceOnUse"
       gradientTransform="matrix(0.58155043,0,0,0.58050707,58.49695,144.31151)" />
    <linearGradient
       inkscape:collect="always"
       id="linearGradient26175">
      <stop
         style="stop-color:#4d4d4d;stop-opacity:1;"
         offset="0"
         id="stop26171" />
      <stop
         style="stop-color:#808080;stop-opacity:1"
         offset="1"
         id="stop26173" />
    </linearGradient>
    <linearGradient
       inkscape:collect="always"
       xlink:href="#linearGradient26185"
       id="linearGradient26187"
       x1="2370.6108"
       y1="999.7641"
       x2="2463.2939"
       y2="1060.7983"
       gradientUnits="userSpaceOnUse"
       gradientTransform="matrix(0.58155043,0,0,0.58050707,58.49695,144.31151)" />
    <linearGradient
       inkscape:collect="always"
       id="linearGradient26185">
      <stop
         style="stop-color:#b3b3b3;stop-opacity:1;"
         offset="0"
         id="stop26181" />
      <stop
         style="stop-color:#ffffff;stop-opacity:1"
         offset="1"
         id="stop26183" />
    </linearGradient>
    <linearGradient
       inkscape:collect="always"
       xlink:href="#linearGradient28857"
       id="linearGradient28859"
       x1="2241.9714"
       y1="559.26068"
       x2="2290.0862"
       y2="597.71259"
       gradientUnits="userSpaceOnUse"
       gradientTransform="matrix(0.58155043,0,0,0.58050707,58.49695,144.31151)" />
    <linearGradient
       inkscape:collect="always"
       id="linearGradient28857">
      <stop
         style="stop-color:#ffdd55;stop-opacity:1"
         offset="0"
         id="stop28853" />
      <stop
         style="stop-color:#ffeeaa;stop-opacity:1"
         offset="1"
         id="stop28855" />
    </linearGradient>
    <linearGradient
       inkscape:collect="always"
       xlink:href="#linearGradient28881"
       id="linearGradient28889"
       x1="2348.4375"
       y1="587.69531"
       x2="2343.5835"
       y2="636.15143"
       gradientUnits="userSpaceOnUse"
       gradientTransform="matrix(0.58155043,0,0,0.58050707,58.49695,144.31151)" />
    <linearGradient
       inkscape:collect="always"
       xlink:href="#linearGradient28881"
       id="linearGradient28867"
       x1="2274.1719"
       y1="646.40106"
       x2="2303.3235"
       y2="669.33594"
       gradientUnits="userSpaceOnUse"
       gradientTransform="matrix(0.58155043,0,0,0.58050707,58.49695,144.31151)" />
    <linearGradient
       inkscape:collect="always"
       xlink:href="#linearGradient29039"
       id="linearGradient29041"
       x1="2296.0938"
       y1="757.22058"
       x2="2402.2314"
       y2="672.7171"
       gradientUnits="userSpaceOnUse"
       gradientTransform="matrix(0.58155043,0,0,0.58050707,58.49695,144.31151)" />
    <linearGradient
       inkscape:collect="always"
       id="linearGradient29039">
      <stop
         style="stop-color:#44aa00;stop-opacity:1;"
         offset="0"
         id="stop29035" />
      <stop
         style="stop-color:#7fff2a;stop-opacity:1"
         offset="1"
         id="stop29037" />
    </linearGradient>
    <linearGradient
       inkscape:collect="always"
       xlink:href="#linearGradient29047"
       id="linearGradient29049"
       x1="2411.8003"
       y1="702.16437"
       x2="2441.1313"
       y2="680.23895"
       gradientUnits="userSpaceOnUse"
       gradientTransform="matrix(0.58155043,0,0,0.58050707,58.49695,144.31151)" />
    <linearGradient
       inkscape:collect="always"
       id="linearGradient29047">
      <stop
         style="stop-color:#44aa00;stop-opacity:1;"
         offset="0"
         id="stop29043" />
      <stop
         style="stop-color:#b3ff80;stop-opacity:1"
         offset="1"
         id="stop29045" />
    </linearGradient>
    <inkscape:path-effect
       effect="spiro"
       id="path-effect4866-9"
       is_visible="true"
       lpeversion="1" />
    <inkscape:path-effect
       effect="spiro"
       id="path-effect5714-3"
       is_visible="true"
       lpeversion="1" />
    <inkscape:path-effect
       effect="spiro"
       id="path-effect5718-4"
       is_visible="true"
       lpeversion="1" />
    <inkscape:path-effect
       effect="spiro"
       id="path-effect5730-7"
       is_visible="true"
       lpeversion="1" />
    <inkscape:path-effect
       effect="spiro"
       id="path-effect5718-4-1"
       is_visible="true"
       lpeversion="1" />
    <inkscape:path-effect
       effect="spiro"
       id="path-effect5730-7-6"
       is_visible="true"
       lpeversion="1" />
  </defs>
  <g
     inkscape:label="Layer 1"
     inkscape:groupmode="layer"
     id="layer1">
    <path
       id="path113922-8"
       style="opacity:0.45;fill:none;stroke:#000000;stroke-width:1.58908425;stroke-dasharray:none"
       d="m 1266.1235,585.65564 c 0,-29.17986 23.6976,-52.8348 52.9299,-52.83478 29.2321,0 52.9297,23.65494 52.9297,52.83478"
       sodipodi:nodetypes="csc" />
    <path
       style="opacity:0.45;fill:none;stroke:#000000;stroke-width:1.58908425;stroke-linecap:round;stroke-linejoin:round;stroke-dasharray:none"
       d="m 1242.2701,590.57631 c 14.5966,33.97137 34.775,56.50561 60.8811,66.89436"
       id="path7022"
       sodipodi:nodetypes="cc" />
    <path
       style="opacity:0.45;fill:none;stroke:#000000;stroke-width:1.58908425;stroke-linecap:round;stroke-linejoin:round;stroke-dasharray:none"
       d="m 1313.9416,657.75399 c 8.4879,0.99973 16.926,1.3994 25.3271,1.35848 8.6673,-0.0421 17.2955,-0.55342 25.8993,-1.35848"
       id="path12855"
       sodipodi:nodetypes="csc" />
    <path
       style="opacity:0.45;fill:none;stroke:#000000;stroke-width:1.58908425;stroke-linecap:round;stroke-linejoin:round;stroke-dasharray:none"
       d="m 1485.1128,585.65564 c 4.0638,-46.65258 -16.897,-67.43334 -46.5694,-79.2075 2.1158,26.46939 -8.1429,36.43471 -20.4452,46.71268 -16.481,21.20968 -23.9396,29.84909 -31.122,32.49482 z"
       id="path12879"
       sodipodi:nodetypes="ccccc" />
    <path
       id="path81224-8"
       style="opacity:0.45;fill:none;stroke:#000000;stroke-width:1.58908425;stroke-linejoin:round;stroke-dasharray:none"
       d="m 1493.7412,585.65564 c -10.4928,34.15036 -33.4575,62.72118 -63.7959,80.37737 m -142.4264,0.14261 c -30.0986,-17.66108 -53.1935,-46.45343 -63.6486,-80.40192"
       sodipodi:nodetypes="cccc" />
    <path
       style="opacity:0.45;fill:none;stroke:#000000;stroke-width:1.58908425;stroke-linecap:round;stroke-linejoin:round;stroke-dasharray:none"
       d="m 1447.4028,513.93125 c 9.7162,16.17977 12.9154,24.31947 12.0544,34.10883 -1.1794,13.41233 -5.2813,31.42577 -18.4151,37.61556"
       id="path12881"
       sodipodi:nodetypes="csc" />
    <path
       id="rect5564"
       style="opacity:0.45;fill:none;stroke:#000000;stroke-width:1.58908425;stroke-linecap:round;stroke-linejoin:round;stroke-dasharray:none"
       d="m 1429.9453,666.03301 c 0.097,0.38049 0.2066,0.71986 0.2066,1.13153 v 17.13767 c 0,2.63814 -2.1276,4.76197 -4.7705,4.76197 h -133.1496 c -2.6428,0 -4.7705,-2.12383 -4.7705,-4.76197 v -17.13767 c 0,-0.36055 -0.022,-0.65174 0.057,-0.98896"
       sodipodi:nodetypes="cssssssc" />
    <path
       style="opacity:0.45;fill:none;stroke:#000000;stroke-width:1.58908425;stroke-linecap:round;stroke-linejoin:round;stroke-dasharray:none"
       d="m 1458.1743,535.73543 c 0,0 -2.1778,10.398 -19.6867,1.89978"
       id="path13609" />
    <path
       style="opacity:0.45;fill:none;stroke:#000000;stroke-width:1.58908425;stroke-linecap:round;stroke-linejoin:round;stroke-dasharray:none"
       d="m 1459.4572,548.04008 c 15.3332,-4.95318 14.2087,14.12775 15.3332,-4.95318"
       id="path13611" />
    <path
       style="opacity:0.45;fill:none;stroke:#000000;stroke-width:1.58908425;stroke-linecap:round;stroke-linejoin:round;stroke-dasharray:none"
       d="m 1455.0892,568.64962 c -23.1877,-8.72661 -11.1401,8.10949 -23.5088,-8.72661"
       id="path13613" />
    <path
       style="opacity:0.45;fill:none;stroke:#000000;stroke-width:1.58908425;stroke-linecap:round;stroke-linejoin:round;stroke-dasharray:none"
       d="m 1452.7962,573.72097 c 20.731,6.87789 19.5951,-6.04746 20.731,6.87789"
       id="path13615" />
    <path
       style="opacity:0.45;fill:none;stroke:#000000;stroke-width:1.58908425;stroke-linecap:round;stroke-linejoin:round;stroke-dasharray:none"
       d="m 1274.964,577.24015 c 1.5604,-4.72766 3.5218,-8.95468 5.8495,-12.72501 m 8.5675,-8.68891 c 8.1605,-12.35869 22.1087,-18.29346 40.7028,-15.42293"
       id="path13621"
       sodipodi:nodetypes="cccc" />
    <path
       style="opacity:0.45;fill:none;stroke:#000000;stroke-width:1.58908425;stroke-linecap:round;stroke-linejoin:round;stroke-dasharray:none"
       d="m 1409.794,563.71836 c 0,0 23.2973,-56.1364 -31.4501,-78.58571"
       id="path13623" />
    <path
       style="opacity:0.45;fill:none;stroke:#000000;stroke-width:1.58908425;stroke-linecap:round;stroke-linejoin:round;stroke-dasharray:none"
       d="m 1361.0791,466.76504 c 43.5026,2.49437 29.2185,24.52286 29.2185,24.52286 0,0 -34.3299,5.86305 -29.2185,-24.52286 z"
       id="path14351" />
    <path
       style="opacity:0.45;fill:none;stroke:#000000;stroke-width:1.58908425;stroke-linecap:round;stroke-linejoin:round;stroke-dasharray:none"
       d="m 1413.5681,524.76737 c 0,0 9.4142,-5.62064 8.6192,-18.99951"
       id="path14353" />
    <path
       style="opacity:0.45;fill:url(#linearGradient28875);fill-opacity:1;stroke:#000000;stroke-width:1.58908425;stroke-linecap:round;stroke-linejoin:round;stroke-dasharray:none"
       d="m 1421.4088,513.6019 c 0,0 19.9742,-5.79319 2.8228,-28.12911"
       id="path14355" />
    <path
       style="opacity:0.45;fill:none;stroke:#000000;stroke-width:1.58908425;stroke-linecap:round;stroke-linejoin:round;stroke-dasharray:none"
       d="m 1421.4088,513.6019 c 0,0 -14.6689,-2.39179 2.8228,-28.12911"
       id="path14357" />
    <path
       style="opacity:0.45;fill:none;stroke:#000000;stroke-width:1.58908425;stroke-linecap:round;stroke-linejoin:round;stroke-dasharray:none"
       d="m 1414.4763,542.70311 c 0,0 -14.4381,0.36687 -21.5936,-14.1458"
       id="path14359" />
    <path
       style="opacity:0.45;fill:none;stroke:#000000;stroke-width:1.58908425;stroke-linecap:round;stroke-linejoin:round;stroke-dasharray:none"
       d="m 1378.2302,516.99251 c 8.3987,28.11086 20.1312,19.07926 20.1312,19.07926 0,0 11.5587,-12.61657 -20.1312,-19.07926 z"
       id="path14361" />
    <path
       style="opacity:0.45;fill:none;stroke:#000000;stroke-width:2.64846023;stroke-linecap:round;stroke-linejoin:round;stroke-dasharray:none"
       d="m 1469.6108,522.64097 26.8649,-81.37248 z"
       id="path15816"
       sodipodi:nodetypes="ccc" />
    <path
       style="opacity:0.45;fill:none;stroke:#000000;stroke-width:2.64846023;stroke-linecap:round;stroke-linejoin:round;stroke-dasharray:none"
       d="m 1439.9064,504.52068 -9.2898,-73.19353 z"
       id="path15818"
       sodipodi:nodetypes="ccc" />
    <path
       style="opacity:0.45;fill:none;stroke:#000000;stroke-width:1.58908425;stroke-linecap:round;stroke-linejoin:round;stroke-dasharray:none"
       d="m 1434.6815,707.58477 c 2.3268,3.81263 2.1697,9.04224 0,15.41973 16.9749,-4.83409 30.0032,-12.22838 39.073,-21.31552 -5.6952,-2.11766 -12.347,-2.91324 -15.4475,-8.6169 z"
       id="path15822"
       sodipodi:nodetypes="ccccc" />
    <path
       style="opacity:0.45;fill:none;stroke:#000000;stroke-width:1.58908425;stroke-linecap:round;stroke-linejoin:round;stroke-dasharray:none"
       d="m 1434.6815,723.0045 c 3.5102,9.56243 0.5583,18.36596 -3.1011,27.0864 26.8101,4.77946 41.6092,12.14468 59.7551,20.52406 l -22.4885,-27.5792 c -3.946,0.90408 -5.8578,0.0426 -11.0838,-2.8862 -2.6059,-7.37558 -2.6839,-11.75263 3.6946,-15.0723 5.1255,-2.07359 9.6527,-1.56023 13.4933,1.92415 3.1261,5.22235 1.5368,8.76358 -1.2852,11.86545 l 20.2397,29.18256 c -2.9622,-18.37431 -2.1439,-36.14829 2.5701,-55.79967 -10.438,-0.42275 -17.4083,-4.59567 -22.7212,-10.56077 -9.9844,9.61691 -22.8468,16.85593 -39.073,21.31552 z"
       id="path15824"
       sodipodi:nodetypes="cccccccccccc" />
    <path
       style="opacity:0.45;fill:none;stroke:#000000;stroke-width:1.58908425;stroke-linecap:round;stroke-linejoin:round;stroke-dasharray:none"
       d="m 1434.6815,707.58477 c -9.9988,-4.71554 -18.416,-10.81239 -24.9884,-18.52059 h 15.6888 c 3.091,-0.31083 4.5311,-2.02578 4.7705,-4.76197 l -0.2066,-18.2692 c 2.8991,-1.68628 5.5692,-3.37986 8.0822,-5.0784 10.7839,9.55817 15.3001,20.90381 20.2795,32.11747 z"
       id="path15826"
       sodipodi:nodetypes="cccccccc" />
    <path
       style="opacity:0.45;fill:none;stroke:#000000;stroke-width:1.58908425;stroke-linecap:round;stroke-linejoin:round;stroke-dasharray:none"
       d="m 1223.823,585.65564 h 269.9182 z"
       id="path7020" />
    <path
       style="opacity:0.45;fill:none;stroke:#000000;stroke-width:1.58908425;stroke-linecap:round;stroke-linejoin:round;stroke-dasharray:none"
       d="m 1386.9762,585.65564 c -28.4788,-51.96398 -69.9397,-91.74204 -114.259,-131.74009 -7.3371,0.82704 -13.6292,3.6359 -18.8246,8.52493 19.3678,29.5873 33.2918,55.29164 53.8704,71.58502 24.4073,-5.02519 40.3405,5.33144 53.8102,20.15937 6.681,9.2161 10.3881,19.61224 10.4099,31.47077 z"
       id="path15828"
       sodipodi:nodetypes="ccccccc" />
    <path
       style="opacity:0.45;fill:none;stroke:#000000;stroke-width:1.58908425;stroke-linecap:round;stroke-linejoin:round;stroke-dasharray:none"
       d="m 1255.831,465.41575 c 4.4025,-0.72248 8.3486,-1.78257 11.7643,-3.2347 3.2983,-1.40217 6.102,-3.16984 8.3453,-5.35208"
       id="path15830"
       sodipodi:nodetypes="csc" />
    <path
       style="opacity:0.45;fill:url(#linearGradient19888);fill-opacity:1;stroke:none;stroke-width:2.64846023;stroke-linecap:round;stroke-linejoin:round;stroke-dasharray:none"
       d="m 1290.273,686.12017 c -0.6522,-0.71914 -0.752,-2.16322 -0.752,-10.86567 v -10.03629 l -5.7927,-3.80142 c -21.6278,-14.19278 -38.0303,-32.49759 -49.3347,-55.05623 -2.8222,-5.63152 -6.7461,-14.94681 -7.3652,-17.48494 l -0.3042,-1.24718 h 132.0338 c 85.6039,0 132.0339,0.15578 132.0339,0.44287 0,1.11066 -3.5943,9.93692 -6.561,16.11063 -11.6794,24.30668 -29.7391,44.37534 -52.6162,58.46965 l -3.5212,2.1693 v 10.31375 c 0,9.41585 -0.072,10.3791 -0.8308,11.06434 -0.7651,0.69134 -6.1731,0.75056 -68.5343,0.75056 -65.0132,0 -67.7334,-0.0329 -68.4554,-0.82937 z m 69.6702,-25.94352 c 6.1552,-0.51716 7.2694,-0.90542 7.2694,-2.53351 0,-1.15588 -1.4621,-2.06841 -2.9097,-1.81587 -7.2384,1.26302 -38.29,1.4587 -47.2945,0.29803 -3.4427,-0.44374 -3.6768,-0.41792 -4.4298,0.48868 -0.9678,1.16513 -0.9865,1.50788 -0.1297,2.36406 1.8766,1.87332 30.7806,2.60279 47.4932,1.19861 z m -55.202,-2.65284 c 0,-1.4898 -0.1121,-1.58331 -3.8618,-3.23147 -11.6896,-5.1376 -23.2886,-13.88996 -32.3019,-24.37461 -8.2512,-9.59828 -13.4769,-17.67953 -20.2577,-31.32854 -2.6435,-5.32094 -5.1138,-9.79225 -5.4897,-9.93627 -0.9535,-0.36519 -2.1221,0.4674 -2.2962,1.63582 -0.3102,2.08238 7.9448,18.44819 13.8541,27.46623 5.0617,7.72445 9.2107,12.93686 15.1369,19.01684 8.9818,9.21485 16.2908,14.60515 26.8132,19.77453 6.692,3.28758 8.4031,3.48662 8.4031,0.97747 z"
       id="path19880" />
    <path
       style="opacity:0.45;fill:url(#linearGradient21697);fill-opacity:1;stroke:none;stroke-width:2.64846023;stroke-linecap:round;stroke-linejoin:round;stroke-dasharray:none"
       d="m 1268.3859,580.92805 c 2.6296,-16.33241 9.4522,-28.05706 21.1921,-36.4195 15.0533,-10.72244 35.0836,-12.5117 50.9238,-4.54895 9.7162,4.88418 19.5687,14.37152 23.8143,22.9316 2.8558,5.75809 5.2602,13.97607 5.2602,17.9791 v 2.46291 h -50.7888 -50.7889 z m 8.4508,-3.37176 c 2.5853,-5.21594 5.9983,-12.84276 5.9983,-13.40391 0,-0.36118 -0.5583,-0.95489 -1.2405,-1.31936 -1.685,-0.9002 -2.7064,0.21633 -5.4976,6.00886 -2.4453,5.07487 -3.2739,8.10315 -2.657,9.70862 0.5594,1.45496 2.4585,0.89912 3.3968,-0.99421 z m 14.3511,-20.45012 c 0,-1.24301 6.3163,-7.49261 9.9325,-9.82769 6.373,-4.11517 11.3699,-5.32505 21.6802,-5.24951 9.0722,0.0665 10.0308,-0.20602 9.1142,-2.59053 -0.4932,-1.28316 -6.17,-1.88547 -14.0071,-1.4862 -10.6769,0.54393 -19.1908,4.28089 -26.0699,11.4429 -3.4985,3.64218 -4.823,5.88954 -4.2893,7.27771 0.4028,1.04811 3.6394,1.43345 3.6394,0.43332 z"
       id="path21604" />
    <path
       style="opacity:0.45;fill:url(#linearGradient25141);fill-opacity:1;stroke:none;stroke-width:2.648;stroke-linecap:round;stroke-linejoin:round;stroke-dasharray:none"
       d="m 1373.7688,581.80995 c -0.7197,-6.93877 -1.7791,-11.40619 -4.0118,-16.91629 -4.4072,-10.87664 -12.578,-20.33011 -22.8364,-26.42132 -4.6899,-2.7847 -11.6243,-5.4925 -16.9564,-6.62127 -4.5109,-0.95491 -12.521,-1.17973 -17.6922,-0.49655 l -3.9744,0.52508 -1.1658,-0.86332 c -0.6412,-0.47481 -3.6307,-3.32871 -6.6432,-6.34196 -7.7794,-7.78091 -14.4652,-16.29851 -23.4314,-29.85096 -5.9008,-8.9192 -17.8932,-27.78843 -17.751,-27.93029 0.073,-0.0724 1.7096,-0.573 3.6381,-1.11252 3.8986,-1.09068 8.7071,-3.23507 11.0966,-4.94864 0.8618,-0.61812 1.715,-1.12387 1.8957,-1.12387 0.1803,0 2.9636,2.41195 6.1836,5.35991 41.8494,38.31123 67.2362,66.15861 87.4161,95.88885 5.1404,7.57322 14.015,21.93042 14.015,22.67348 0,0.10114 -2.1542,0.18386 -4.7874,0.18386 h -4.7874 z"
       id="path25133" />
    <path
       style="opacity:0.45;fill:url(#linearGradient25220);fill-opacity:1;stroke:none;stroke-width:2.64846023;stroke-linecap:round;stroke-linejoin:round;stroke-dasharray:none"
       d="m 1431.5193,703.77804 c -5.4794,-2.90353 -10.356,-6.31213 -15.1492,-10.58853 l -2.3595,-2.10519 6.8573,-0.16038 6.8572,-0.16039 1.3542,-0.91715 c 0.8708,-0.58969 1.645,-1.49952 2.1688,-2.54829 l 0.8141,-1.63114 v -9.31716 -9.31715 l 2.6877,-1.68362 c 1.4781,-0.92598 2.8244,-1.6836 2.9914,-1.6836 0.5087,0 4.6925,4.50029 6.5588,7.05512 2.6018,3.56119 4.223,6.25427 6.5129,10.81834 2.1294,4.24466 5.0804,10.72156 4.9336,10.82826 -0.322,0.23397 -21.1686,12.98642 -21.2211,12.98155 -0.037,-0.004 -1.3949,-0.71023 -3.019,-1.57076 z"
       id="path25212" />
    <path
       style="opacity:0.45;fill:url(#linearGradient26096);fill-opacity:1;stroke:none;stroke-width:2.64846023;stroke-linecap:round;stroke-linejoin:round;stroke-dasharray:none"
       d="m 1256.4598,463.08776 -0.24,-0.34826 0.7968,-0.62888 c 3.5519,-2.80302 7.2887,-4.61501 11.7229,-5.68463 1.1524,-0.27801 2.9141,-0.60696 3.2432,-0.6056 0.097,4e-4 0.4134,0.22123 0.7268,0.50551 l 0.5566,0.50478 -0.8377,0.60924 c -3.1277,2.27503 -7.0687,3.97984 -12.0819,5.22652 -1.0515,0.26149 -3.411,0.76958 -3.5737,0.76958 -0.04,0 -0.1802,-0.15665 -0.313,-0.34826 z"
       id="path26088" />
    <path
       style="opacity:0.45;fill:#4d4d4d;stroke:none;stroke-width:2.64846023;stroke-linecap:round;stroke-linejoin:round;stroke-dasharray:none"
       d="m 1437.5255,719.99991 c 0,-0.0935 0.1517,-0.98639 0.3328,-1.98413 0.5662,-3.12823 0.4504,-5.32771 -0.4915,-9.31714 -0.097,-0.41333 1.1876,-1.27142 10.1206,-6.75749 l 10.2323,-6.284 0.8313,0.91855 c 1.7791,1.96556 4.4595,3.49031 8.6154,4.90073 1.3744,0.46643 2.5741,0.9127 2.666,0.99173 0.3308,0.28474 -4.4885,4.05031 -8.7994,6.8756 -6.112,4.00562 -12.0371,6.86121 -20.1742,9.72307 -3.4131,1.20032 -3.3397,1.17983 -3.3333,0.93308 z"
       id="path26167" />
    <path
       style="opacity:0.45;fill:url(#linearGradient26177);fill-opacity:1;stroke:none;stroke-width:2.64846023;stroke-linecap:round;stroke-linejoin:round;stroke-dasharray:none"
       d="m 1437.8328,719.23086 c 0.3877,-2.06176 0.418,-6.69027 0.057,-8.60249 -0.2022,-1.06982 -0.3681,-2.00726 -0.3681,-2.0832 0,-0.0759 0.8888,-0.72237 1.9751,-1.43648 2.3476,-1.54321 18.0101,-11.2021 18.1648,-11.2021 0.059,0 0.3682,0.30942 0.6871,0.68761 1.39,1.64891 4.5243,3.44982 8.4776,4.8711 1.312,0.47163 2.4855,0.9475 2.6079,1.05749 0.2506,0.22532 -0.083,0.52894 -3.2937,2.99691 -7.2803,5.5963 -14.9865,9.72112 -24.5297,13.1298 -4.2777,1.52791 -3.9458,1.47686 -3.7775,0.58136 z"
       id="path26169" />
    <path
       style="opacity:0.45;fill:url(#linearGradient26187);fill-opacity:1;stroke:none;stroke-width:2.64846023;stroke-linecap:round;stroke-linejoin:round;stroke-dasharray:none"
       d="m 1481.7778,764.18525 c -16.104,-7.37051 -29.086,-11.71607 -44.2442,-14.81029 -1.7614,-0.35956 -3.2308,-0.68197 -3.2655,-0.71653 -0.035,-0.0342 0.3321,-1.13337 0.8146,-2.44184 3.0576,-8.28953 3.7416,-15.02124 2.1481,-21.13584 l -0.2089,-0.79824 3.7041,-1.22309 c 12.3637,-4.08246 23.3477,-10.14543 31.4086,-17.33706 l 1.5214,-1.35737 1.6109,1.43247 c 2.9429,2.6169 5.9796,4.5144 9.4014,5.87473 2.7528,1.09419 4.8068,1.59868 8.9733,2.20398 0.4891,0.0711 0.5315,0.11913 0.4491,0.50877 -3.3838,15.99282 -4.3171,27.47413 -3.3849,41.6387 0.1275,1.94017 0.2716,3.78013 0.32,4.08879 0.083,0.53842 0.077,0.54816 -0.1736,0.24051 -0.1429,-0.1764 -3.5489,-5.06034 -7.5668,-10.85322 l -7.3052,-10.53251 0.5499,-0.77171 c 0.7526,-1.05612 1.1357,-1.85177 1.5553,-3.23116 0.3092,-1.01613 0.3462,-1.42277 0.2769,-3.04459 -0.088,-2.04228 -0.3143,-2.8745 -1.3443,-4.92705 -0.3668,-0.73121 -0.826,-1.36105 -1.2445,-1.70681 -2.7,-2.23169 -5.2633,-3.17719 -8.5998,-3.17221 -6.2665,0.009 -11.4963,3.43304 -12.638,8.27307 -0.3169,1.34427 -0.2363,4.20938 0.1671,5.91462 0.4596,1.94422 1.3616,4.68142 1.6542,5.01882 0.36,0.41547 3.8645,2.30607 5.4464,2.93842 1.7948,0.71739 3.2657,0.98552 4.9195,0.89681 l 1.4109,-0.0757 8.0492,9.88146 c 4.427,5.43476 8.1585,10.00764 8.2921,10.162 0.1341,0.15424 0.1781,0.27934 0.097,0.27783 -0.079,0 -1.3382,-0.54858 -2.7959,-1.21577 z"
       id="path26179" />
    <path
       style="opacity:0.45;fill:url(#linearGradient28859);fill-opacity:1;stroke:none;stroke-width:2.64846023;stroke-linecap:round;stroke-linejoin:round;stroke-dasharray:none"
       d="m 1375.2065,488.49131 c -7.8139,-2.03443 -11.8817,-6.98458 -12.5479,-15.26953 l -0.3422,-4.25548 4.4331,0.4131 c 5.9972,0.55884 11.3398,1.99177 16.1657,4.33571 5.0585,2.45696 7.222,5.35083 7.222,9.65991 0,5.0255 -0.1121,5.07263 -5.5497,2.34447 -5.2416,-2.62952 -7.5776,-3.03443 -8.1979,-1.42095 -0.5543,1.44166 -0.059,1.99765 3.3506,3.77063 2.4813,1.28975 2.7269,1.56221 1.4017,1.55635 -0.8836,-0.004 -3.5544,-0.51431 -5.9354,-1.13421 z"
       id="path28847" />
    <path
       style="opacity:0.45;fill:url(#linearGradient28889);fill-opacity:1;stroke:none;stroke-width:2.64846023;stroke-linecap:round;stroke-linejoin:round;stroke-dasharray:none"
       d="m 1419.1857,510.35977 c -0.2576,-0.28062 -0.7099,-0.9694 -1.0051,-1.53063 -0.4746,-0.90217 -0.5346,-1.30952 -0.517,-3.51479 0.022,-2.17586 0.1143,-2.78393 0.7651,-4.76197 0.9124,-2.77492 2.2649,-5.70456 3.9958,-8.65504 2.0439,-3.48427 1.7362,-3.32281 2.8998,-1.52214 3.0418,4.70802 4.4137,9.20991 3.8344,12.58261 -0.4605,2.68082 -2.1484,5.29572 -4.4725,6.92989 l -0.6816,0.47916 v -2.68909 c 0,-2.47808 -0.04,-2.72877 -0.506,-3.19521 -0.6798,-0.67978 -1.9412,-0.6812 -2.6206,-0.002 -0.4546,0.45364 -0.5104,0.76513 -0.5687,3.16331 -0.086,3.4957 -0.1846,3.73917 -1.1236,2.71683 z"
       id="path28849" />
    <path
       style="opacity:0.45;fill:url(#linearGradient28867);fill-opacity:1;stroke:none;stroke-width:2.64846023;stroke-linecap:round;stroke-linejoin:round;stroke-dasharray:none"
       d="m 1392.052,535.27084 c -2.9615,-1.05602 -5.8051,-4.11159 -8.1464,-8.75438 -0.8148,-1.61581 -2.9699,-6.85797 -2.8631,-6.96458 0.1561,-0.15599 6.5542,1.84971 8.5383,2.67691 5.7396,2.39278 8.8645,5.34386 8.8621,8.36935 0,1.36577 -0.178,2.26761 -0.4473,2.26761 -0.2257,0 -2.3026,-3.01551 -2.9345,-4.26118 -0.7093,-1.39798 -1.2516,-1.86136 -2.1784,-1.86136 -0.8847,0 -1.6109,0.57159 -1.8292,1.43938 -0.1758,0.70062 0.9944,3.04509 2.713,5.43392 0.7007,0.97413 1.2741,1.81599 1.2741,1.87077 0,0.22061 -2.2122,0.0603 -2.9886,-0.21633 z"
       id="path28851" />
    <path
       style="opacity:0.45;fill:#44aa00;fill-opacity:1;stroke:none;stroke-width:2.64846023;stroke-linecap:round;stroke-linejoin:round;stroke-dasharray:none"
       d="m 1394.927,582.94582 c 1.8749,-1.54855 6.6432,-6.45963 9.4366,-9.71903 3.5245,-4.11263 5.7209,-6.81051 10.8091,-13.27607 3.609,-4.58609 4.6905,-5.79633 6.7882,-7.59647 3.219,-2.76272 7.1057,-6.64501 8.9542,-8.94413 6.7673,-8.41705 9.7863,-17.97557 9.7863,-30.98576 0,-1.72853 0.09,-2.91496 0.22,-2.91496 0.1209,0 1.4524,0.57754 2.9587,1.28343 l 2.7387,1.2834 -0.5053,0.53689 c -0.8871,0.9426 -0.6766,1.69331 1.5148,5.39982 4.3509,7.35943 8.7317,16.70305 8.4174,17.9531 -0.2275,0.90518 -1.7792,2.25144 -3.1066,2.69543 -2.6281,0.87898 -6.985,0.21809 -11.3291,-1.71853 -2.8048,-1.25047 -3.6473,-1.36401 -4.4173,-0.59535 -0.6174,0.61626 -0.7431,1.45978 -0.3319,2.22671 0.2974,0.55481 3.1871,1.94219 6.015,2.88793 5.5418,1.85333 10.4225,1.74034 13.5313,-0.31324 0.4849,-0.32042 0.9143,-0.47054 0.9913,-0.34649 0.075,0.12046 0.1934,1.41961 0.2653,2.88719 0.2426,4.98234 -1.0904,13.81119 -3.1418,20.80917 -0.2559,0.87301 -0.4961,1.62028 -0.5337,1.66057 -0.037,0.0404 -0.8935,-0.18694 -1.9017,-0.50483 -5.2905,-1.66822 -9.7731,-1.93524 -12.3925,-0.73817 -1.6361,0.74767 -1.3368,0.96867 -4.5663,-3.37094 -2.2953,-3.08474 -2.7444,-3.49814 -3.8073,-3.50622 -0.6902,-0.004 -1.523,1.02273 -1.523,1.87982 0,0.6183 0.4286,1.34516 2.1791,3.69516 4.7623,6.39353 5.6525,6.92769 8.56,5.13636 1.3331,-0.82129 1.4507,-0.8501 3.4419,-0.84304 1.1337,0.004 2.6237,0.1413 3.3108,0.30504 2.4611,0.58645 5.225,1.46202 5.225,1.65523 0,0.41994 -1.9283,4.02227 -3.1343,5.85566 -1.6353,2.48563 -5.1211,5.93745 -7.2705,7.19964 l -1.6412,0.96373 -23.3385,-0.002 -23.3384,-0.002 z"
       id="path28960" />
    <path
       style="opacity:0.45;fill:url(#linearGradient29041);fill-opacity:1;stroke:none;stroke-width:2.64846023;stroke-linecap:round;stroke-linejoin:round;stroke-dasharray:none"
       d="m 1399.976,578.21786 c 2.8459,-2.93087 8.4673,-9.41055 12.4918,-14.39928 4.5784,-5.67524 9.0383,-10.65201 11.9151,-13.2957 11.027,-10.1347 15.7006,-19.94172 16.3035,-34.21065 0.1451,-3.42975 0.3825,-6.23591 0.528,-6.23591 0.1451,0 1.3245,0.43857 2.6202,0.97459 2.1088,0.87246 2.3002,1.06389 1.8261,1.8265 -0.44,0.70804 -0.2348,1.40504 1.2164,4.1275 5.0193,9.41826 7.5215,14.46664 8.2398,16.62516 l 0.7976,2.39697 -1.1994,1.19718 c -1.1019,1.09987 -1.5032,1.19715 -4.9374,1.19715 -3.1701,0 -4.3456,-0.23522 -7.7393,-1.54884 l -4.0012,-1.54881 -0.9645,0.9627 c -1.643,1.64004 -0.6035,2.92904 3.6966,4.58443 5.8438,2.24957 11.8966,2.63061 15.0474,0.9473 0.5379,-0.28729 1.1137,-0.38576 1.2797,-0.21875 0.5303,0.53329 0.1626,8.48844 -0.5963,12.93366 -1.0641,6.22437 -2.5244,11.41767 -3.144,11.18029 -3.839,-1.47051 -11.1137,-1.98194 -14.1792,-0.99684 -0.7984,0.25655 -1.3993,-0.25788 -3.6346,-3.11121 -3.0788,-3.92997 -4.0604,-4.49134 -5.2625,-3.00955 -0.4527,0.55819 -0.8231,1.17311 -0.8231,1.36649 0,0.70885 3.7537,5.93638 5.6932,7.92842 2.2389,2.2994 2.9027,2.44181 5.3295,1.14344 0.9324,-0.49888 2.5356,-0.90706 3.5623,-0.90706 1.681,0 6.9089,1.11324 7.7949,1.65977 0.1934,0.1198 -0.3655,1.5811 -1.2438,3.24734 -1.6806,3.18869 -4.9899,6.95187 -8.0748,9.18266 l -1.8393,1.32996 h -22.9386 -22.9384 z"
       id="path29031" />
    <path
       style="opacity:0.45;fill:url(#linearGradient29049);fill-opacity:1;stroke:none;stroke-width:2.64846023;stroke-linecap:round;stroke-linejoin:round;stroke-dasharray:none"
       d="m 1449.6008,581.75439 c 0.8922,-0.98578 2.1699,-2.61845 2.8394,-3.62815 0.6692,-1.00972 1.3816,-1.83585 1.5827,-1.83585 0.2,0 1.7584,0.32499 3.4608,0.72215 3.1024,0.72393 11.2673,0.72722 12.9107,0.004 0.5998,-0.26357 0.7783,0.0939 1.0065,2.01856 0.3055,2.57416 0.9128,3.60339 2.1263,3.60339 1.5221,0 1.9637,-1.18676 1.6834,-4.52333 -0.4536,-5.40191 -1.3192,-6.00046 -6.8891,-4.76353 -3.5454,0.78736 -6.4019,0.69795 -10.6079,-0.33202 -1.5296,-0.37457 -1.8918,-0.63906 -1.6608,-1.2125 1.6245,-4.03078 3.5277,-11.06062 4.352,-16.07568 0.8853,-5.3853 1.1238,-6.1651 1.9542,-6.38765 2.6466,-0.7094 5.4976,0.16236 8.1486,2.4916 1.5676,1.37753 2.4088,1.8034 3.3484,1.69532 1.8362,-0.21129 2.4171,-1.86803 2.5284,-7.21233 0.092,-4.41307 0.053,-4.61951 -0.9368,-4.99296 -1.7762,-0.66982 -2.829,0.87659 -2.829,4.15521 v 2.75201 l -1.2494,-0.84663 c -2.2087,-1.49663 -3.7278,-1.93625 -6.6902,-1.93625 h -2.8992 l -0.2771,-2.60775 c -0.4715,-4.43299 -1.6142,-8.78102 -3.441,-13.0929 -1.6078,-3.79508 -5.7622,-11.78032 -7.5301,-14.47349 -0.4039,-0.61534 -0.6116,-1.11883 -0.4617,-1.11883 0.5785,0 5.2391,3.02219 9.2005,5.96633 9.6223,7.15109 16.5878,16.78611 20.3839,28.19676 2.8844,8.66932 3.8682,15.5791 3.8682,27.16376 v 8.0619 h -17.7718 -17.772 z"
       id="path29033" />
    <path
       style="opacity:0.45;fill:none;stroke:#ffcc00;stroke-width:15.875;stroke-linecap:round;stroke-linejoin:round;stroke-dasharray:none"
       d="M 954.48649,842.10811 H 341.51351 C 259.24645,836.69375 180.31472,792.84299 132.25553,725.85419 84.196342,658.86539 67.946946,570.04499 89.176331,490.38008 110.40572,410.71517 168.69986,341.75939 243.72147,307.5696 c 75.02162,-34.1898 165.30762,-32.94683 239.3596,3.29526 28.29437,13.84767 54.27084,32.54966 75.89189,55.45947 46.57578,49.35201 71.5387,119.03174 64.47282,186.52247 -7.06588,67.49072 -46.80498,131.30559 -105.49132,165.37666 -29.34317,17.03554 -62.95673,26.72829 -96.87517,27.60625 -33.91844,0.87795 -68.06814,-7.09491 -97.93864,-23.18791 -29.8705,-16.093 -55.3678,-40.29721 -72.71472,-69.45738 -17.34692,-29.16017 -26.45799,-63.20974 -25.66918,-97.13037 0.91736,-39.44868 15.45108,-78.60054 41.20387,-108.4976 25.75278,-29.89706 62.65591,-50.16942 101.82315,-54.96185 47.68037,-5.83408 97.97941,12.2246 130.04751,47.98899 16.03405,17.8822 27.52575,39.83527 32.89978,63.24432 5.37403,23.40904 4.59867,48.22549 -2.40675,71.19912 -9.51287,31.19657 -30.66566,58.69521 -58.37838,75.89189"
       id="path4958"
       inkscape:path-effect="#path-effect4960"
       inkscape:original-d="M 954.48649,842.10811 H 341.51351 c 0,0 94.37864,-354.16191 141.56756,-531.24325 47.18894,-177.08134 50.59486,36.97325 75.89189,55.45947 25.29705,18.4862 -222.81055,126.48674 -334.21621,189.72972 -111.40566,63.24298 95.35162,-108.97272 143.02702,-163.45945 47.67543,-54.48675 107.02729,121.62187 160.54054,182.43243 53.51325,60.81054 -38.91864,50.59484 -58.37838,75.89189" />
    <path
       style="opacity:0.45;fill:none;stroke:#ffe680;stroke-width:15.875;stroke-linecap:round;stroke-linejoin:round;stroke-dasharray:none"
       d="M 345.89189,812.18917 C 301.40182,806.48675 258.5555,788.45871 223.37208,760.63767 188.18865,732.81662 160.76761,695.28125 144.96113,653.3046 129.15465,611.32795 125.00742,565.02874 133.10205,520.91116 c 8.09464,-44.11758 28.40825,-85.92876 58.08714,-119.55981 6.83289,-7.74279 14.1491,-15.059 21.89189,-21.89189"
       id="path5704"
       inkscape:path-effect="#path-effect5706"
       inkscape:original-d="M 345.89189,812.18917 C 294.3246,675.24351 242.75702,538.29756 191.18919,401.35135 139.62136,264.40513 205.78405,386.75701 213.08108,379.45946" />
    <path
       style="opacity:0.45;fill:none;stroke:#ffe680;stroke-width:15.875;stroke-linecap:round;stroke-linejoin:round;stroke-dasharray:none"
       d="m 316.70271,484.54053 c 13.89647,-19.10855 35.03229,-32.81506 58.14731,-37.70835 23.11502,-4.89329 47.99197,-0.92737 68.43964,10.91076 20.44767,11.83813 36.27385,31.43718 43.53984,53.91949 7.26599,22.4823 5.90348,47.63652 -3.74843,69.20244 -4.03988,9.02658 -9.4754,17.42694 -16.05404,24.81079"
       id="path5708"
       inkscape:path-effect="#path-effect5710"
       inkscape:original-d="m 316.70271,484.54053 c 55.45971,32.10837 110.91918,64.21649 166.37836,96.32434 55.45921,32.10784 -10.70242,16.54079 -16.05404,24.81079" />
    <path
       style="opacity:0.45;fill:none;stroke:#ffe680;stroke-width:6.61458;stroke-linecap:round;stroke-linejoin:round;stroke-dasharray:none"
       d="m 1327.3783,782.27027 h -201.4054 c -17.7583,-1.83636 -27.0268,-11.78215 -36.4406,-22.91157 -9.4138,-11.12941 -15.2802,-25.21468 -16.5498,-39.7361 -1.2697,-14.52141 2.0635,-29.41101 9.4031,-42.0052 7.3396,-12.59418 18.6514,-22.83401 31.9117,-28.88768 17.2386,-7.86986 37.8826,-8.4029 55.1289,-0.54973 8.6231,3.92658 16.3406,9.86042 22.2508,17.26624 5.9102,7.40583 9.9931,16.2783 11.6473,25.60782 1.423,8.02576 1.0462,16.38134 -1.2307,24.2078 -2.2769,7.82646 -6.4627,15.10771 -12.1821,20.91514 -5.7194,5.80743 -12.9706,10.11794 -20.8428,12.23162 -7.8721,2.11367 -16.3468,2.00792 -24.1228,-0.43565 -10.9556,-3.44272 -20.3364,-11.61161 -25.2525,-21.98992 -4.916,-10.37831 -5.2941,-22.81167 -1.0178,-33.46952"
       id="path5712"
       sodipodi:nodetypes="ccssscssssssssc" />
    <path
       style="opacity:0.45;fill:none;stroke:#ffcc00;stroke-width:6.61458;stroke-linecap:round;stroke-linejoin:round;stroke-dasharray:none"
       d="m 1237.3604,768.57729 h -99.3294 c -16.1901,-2.65491 -30.9096,-13.14742 -38.6997,-27.58638 -7.7901,-14.43895 -8.477,-32.50228 -1.806,-47.49117 0.9077,-2.03958 1.9424,-4.02265 3.096,-5.93395"
       id="path5716"
       inkscape:path-effect="#path-effect5718"
       inkscape:original-d="m 1237.3604,768.57729 h -99.3294 c 0,0 -27.0036,-50.05144 -40.5057,-75.07755 -13.5022,-25.02609 2.0642,-3.95571 3.096,-5.93395" />
    <path
       style="opacity:0.45;fill:none;stroke:#ffcc00;stroke-width:6.61458;stroke-linecap:round;stroke-linejoin:round;stroke-dasharray:none"
       d="m 1182.4067,678.27784 c 3.9799,4.91485 6.6235,10.90121 7.5751,17.15339 0.9516,6.25217 0.2086,12.75397 -2.1288,18.63032 -2.3375,5.87634 -6.2635,11.11202 -11.2495,15.00235 -4.986,3.89033 -11.0192,6.42525 -17.2876,7.26358 -0.8993,0.12027 -1.8032,0.20636 -2.709,0.25802"
       id="path5728"
       inkscape:path-effect="#path-effect5730"
       inkscape:original-d="m 1182.4067,678.27784 c -7.6967,19.35014 -15.3936,38.70002 -23.0908,58.04964 -7.6973,19.34961 -1.8058,0.17227 -2.709,0.25802" />
    <path
       style="fill:none;stroke:#ffe680;stroke-width:10.5833;stroke-linecap:round;stroke-linejoin:round;stroke-dasharray:none;stroke-opacity:1;opacity:0.45"
       d="m 1362.0653,874.00206 h 336.4387 c 31.1806,-4.95401 45.147,-19.68155 60.8724,-38.27273 15.7253,-18.59119 25.5249,-42.12001 27.6458,-66.37738 2.1208,-24.25737 -3.447,-49.12978 -15.7075,-70.1678 -12.2605,-21.03802 -31.1563,-38.1432 -53.3071,-48.25559 -28.7964,-13.14625 -63.2812,-14.03666 -92.0903,-0.9183 -14.4045,6.55918 -27.2964,16.47139 -37.169,28.84249 -9.8727,12.3711 -16.6931,27.19217 -19.4563,42.77671 -2.3771,13.40666 -1.7475,27.36429 2.0559,40.43804 3.8034,13.07376 10.7955,25.23675 20.3495,34.9378 9.554,9.70105 21.667,16.90156 34.817,20.43236 13.15,3.5308 27.3066,3.35416 40.2961,-0.72772 18.3008,-5.75091 33.9711,-19.39667 42.1832,-36.73316 8.212,-17.3365 8.8436,-38.10589 1.7002,-55.90935"
       id="path5712-1"
       sodipodi:nodetypes="ccssssssssssssc" />
    <path
       style="fill:none;stroke:#ffcc00;stroke-width:10.58333333;stroke-linecap:round;stroke-linejoin:round;stroke-dasharray:none;opacity:0.45"
       d="m 1512.4362,851.12855 h 165.9253 c 27.0449,-4.43495 51.633,-21.96222 64.646,-46.08183 13.013,-24.11962 14.1605,-54.29357 3.017,-79.33185 -1.5163,-3.40702 -3.2447,-6.71966 -5.1717,-9.9124"
       id="path5716-1"
       inkscape:path-effect="#path-effect5718-4"
       inkscape:original-d="m 1512.4362,851.12855 h 165.9253 c 0,0 45.1083,-83.60868 67.663,-125.41368 22.5548,-41.80496 -3.4482,-6.60784 -5.1717,-9.9124" />
    <path
       style="fill:none;stroke:#ffcc00;stroke-width:10.58333333;stroke-linecap:round;stroke-linejoin:round;stroke-dasharray:none;opacity:0.45"
       d="m 1604.2339,700.28737 c -6.6482,8.21004 -11.0643,18.21 -12.6538,28.65397 -1.5896,10.44398 -0.3485,21.30495 3.5561,31.12111 3.9047,9.81616 10.4628,18.56212 18.7917,25.06074 8.329,6.49863 18.4072,10.7331 28.8782,12.1335 1.5022,0.20091 3.0121,0.34472 4.5252,0.43101"
       id="path5728-7"
       inkscape:path-effect="#path-effect5730-7"
       inkscape:original-d="m 1604.2339,700.28737 c 12.857,32.32354 25.7143,64.64665 38.5722,96.96932 12.8579,32.32266 3.0165,0.28777 4.5252,0.43101" />
    <path
       style="fill:none;stroke:#ffe680;stroke-width:10.5833;stroke-linecap:round;stroke-linejoin:round;stroke-dasharray:none;stroke-opacity:1;opacity:0.45"
       d="m 1525.1785,54.605357 h 275.1851 c 25.5037,4.034032 36.9273,16.026614 49.7897,31.165342 12.8623,15.138741 20.8777,34.298161 22.6125,54.050851 1.7346,19.75269 -2.8195,40.0062 -12.8478,57.13738 -10.0282,17.13119 -25.4838,31.05987 -43.6017,39.29436 -23.5536,10.70494 -51.7599,11.43 -75.3239,0.74776 -11.782,-5.34111 -22.3267,-13.41259 -30.4018,-23.48633 -8.0753,-10.07374 -13.6539,-22.14249 -15.914,-34.83292 -1.9443,-10.91699 -1.4294,-22.28264 1.6816,-32.92855 3.1109,-10.64591 8.83,-20.55019 16.6445,-28.44972 7.8146,-7.89953 17.7222,-13.76288 28.4781,-16.63799 10.7558,-2.87512 22.335,-2.731282 32.9596,0.59258 14.9689,4.68294 27.7861,15.79463 34.5031,29.91167 6.7169,14.11705 7.2335,31.02949 1.3907,45.52678"
       id="path5712-1-5"
       sodipodi:nodetypes="ccssssssssssssc" />
    <path
       style="fill:none;stroke:#ffcc00;stroke-width:10.5833;stroke-linecap:round;stroke-linejoin:round;stroke-dasharray:none;opacity:0.45"
       d="m 1648.1722,73.231172 h 135.7162 c 22.0891,3.50004 42.2201,17.740165 52.876,37.403118 10.656,19.66295 11.5955,44.30347 2.4679,64.72078 -1.2405,2.77493 -2.6542,5.47244 -4.2301,8.07163"
       id="path5716-1-1"
       inkscape:path-effect="#path-effect5718-4-1"
       inkscape:original-d="m 1648.1722,73.231172 h 135.7162 c 0,0 36.8956,68.082238 55.3439,102.123898 18.4484,34.04162 -2.8204,5.38074 -4.2301,8.07163" />
    <path
       style="fill:none;stroke:#ffcc00;stroke-width:10.5833;stroke-linecap:round;stroke-linejoin:round;stroke-dasharray:none;opacity:0.45"
       d="m 1723.2568,196.06059 c -5.3959,-6.70128 -8.9721,-14.85354 -10.2483,-23.36199 -1.2763,-8.50845 -0.2494,-17.35117 2.9429,-25.34068 3.1922,-7.98951 8.5415,-15.10521 15.3296,-20.39153 6.788,-5.28632 14.9972,-8.72965 23.5253,-9.86757 1.2287,-0.16395 2.4637,-0.28106 3.7014,-0.35097"
       id="path5728-7-4"
       inkscape:path-effect="#path-effect5730-7-6"
       inkscape:original-d="m 1723.2568,196.06059 c 10.5162,-26.32094 21.0326,-52.64153 31.5495,-78.96177 10.517,-26.320214 2.4673,-0.23433 3.7014,-0.35097" />
    <path
       style="opacity:0.45;fill:none;stroke:#ffe680;stroke-width:10.5833;stroke-linecap:round;stroke-linejoin:round;stroke-dasharray:none"
       d="M 582.32431,878.59459 H 353.18919 c -13.30306,4.62286 -25.0862,13.51326 -33.18287,25.03655 -8.09666,11.5233 -12.46674,25.62237 -12.30672,39.70487 0.16003,14.0825 4.84937,28.07862 13.2058,39.41495 8.35644,11.33633 20.33855,19.95664 33.74323,24.27604 10.1883,3.283 21.16913,4.1029 31.72072,2.302 10.55159,-1.8009 20.65339,-6.2257 29.08976,-12.81408 8.43636,-6.58841 15.18573,-15.33232 19.36002,-25.18902 4.17429,-9.85671 5.75733,-20.80655 4.47815,-31.43402 -1.00432,-8.34396 -3.80502,-16.56088 -8.75676,-23.35136 -6.63628,-9.10054 -17.11681,-15.29933 -28.2886,-16.7315 -11.1718,-1.43217 -22.87704,1.92251 -31.59429,9.0548 -8.71725,7.1323 -14.32336,17.94146 -15.13179,29.17563 -0.80842,11.23417 3.19227,22.73465 10.79849,31.0416"
       id="path6504" />
    <path
       style="opacity:0.45;fill:none;stroke:#ffcc00;stroke-width:10.5833;stroke-linecap:round;stroke-linejoin:round;stroke-dasharray:none"
       d="m 380.80566,953.56216 c -2.02079,-4.42319 -2.49567,-9.53488 -1.32426,-14.25463 1.17141,-4.71974 3.98132,-9.01617 7.8358,-11.98116 3.85449,-2.96499 8.72793,-4.57882 13.59024,-4.5004 4.8623,0.0784 9.68116,1.8486 13.43802,4.93635 4.20236,3.45391 7.0275,8.53915 7.73996,13.9319"
       id="path6508"
       inkscape:path-effect="#path-effect6510"
       inkscape:original-d="m 380.80566,953.56216 c 11.18021,-8.5997 22.36012,-17.19964 33.5398,-25.79984 11.17968,-8.60023 5.16022,9.2882 7.73996,13.9319" />
  </g>
</svg>
