<?xml version="1.0" encoding="UTF-8" standalone="no"?>
<!-- Created with Inkscape (http://www.inkscape.org/) -->

<svg
   width="1920mm"
   height="1080mm"
   viewBox="0 0 1920 1080"
   version="1.1"
   id="svg135"
   inkscape:version="1.2.2 (732a01da63, 2022-12-09)"
   sodipodi:docname="BKBGlightNoLogo.svg"
   xmlns:inkscape="http://www.inkscape.org/namespaces/inkscape"
   xmlns:sodipodi="http://sodipodi.sourceforge.net/DTD/sodipodi-0.dtd"
   xmlns="http://www.w3.org/2000/svg"
   xmlns:svg="http://www.w3.org/2000/svg">
  <sodipodi:namedview
     id="namedview137"
     pagecolor="#ffffff"
     bordercolor="#000000"
     borderopacity="0.25"
     inkscape:showpageshadow="2"
     inkscape:pageopacity="0.0"
     inkscape:pagecheckerboard="0"
     inkscape:deskcolor="#d1d1d1"
     inkscape:document-units="mm"
     showgrid="false"
     inkscape:zoom="0.09064429"
     inkscape:cx="5433.3262"
     inkscape:cy="2542.907"
     inkscape:window-width="1920"
     inkscape:window-height="1001"
     inkscape:window-x="-9"
     inkscape:window-y="-9"
     inkscape:window-maximized="1"
     inkscape:current-layer="layer1" />
  <defs
     id="defs132">
    <inkscape:path-effect
       effect="spiro"
       id="path-effect6510"
       is_visible="true"
       lpeversion="1" />
    <inkscape:path-effect
       effect="spiro"
       id="path-effect6506"
       is_visible="true"
       lpeversion="1" />
    <inkscape:path-effect
       effect="spiro"
       id="path-effect5730"
       is_visible="true"
       lpeversion="1" />
    <inkscape:path-effect
       effect="spiro"
       id="path-effect5718"
       is_visible="true"
       lpeversion="1" />
    <inkscape:path-effect
       effect="spiro"
       id="path-effect5714"
       is_visible="true"
       lpeversion="1" />
    <inkscape:path-effect
       effect="spiro"
       id="path-effect5710"
       is_visible="true"
       lpeversion="1" />
    <inkscape:path-effect
       effect="spiro"
       id="path-effect5706"
       is_visible="true"
       lpeversion="1" />
    <inkscape:path-effect
       effect="spiro"
       id="path-effect4960"
       is_visible="true"
       lpeversion="1" />
    <inkscape:path-effect
       effect="spiro"
       id="path-effect4866"
       is_visible="true"
       lpeversion="1" />
    <inkscape:path-effect
       effect="spiro"
       id="path-effect4858"
       is_visible="true"
       lpeversion="1" />
    <inkscape:path-effect
       effect="spiro"
       id="path-effect4850"
       is_visible="true"
       lpeversion="1" />
    <inkscape:path-effect
       effect="spiro"
       id="path-effect4846"
       is_visible="true"
       lpeversion="1" />
    <inkscape:path-effect
       effect="spiro"
       id="path-effect4842"
       is_visible="true"
       lpeversion="1" />
    <inkscape:path-effect
       effect="spiro"
       id="path-effect4866-9"
       is_visible="true"
       lpeversion="1" />
    <inkscape:path-effect
       effect="spiro"
       id="path-effect5714-3"
       is_visible="true"
       lpeversion="1" />
    <inkscape:path-effect
       effect="spiro"
       id="path-effect5718-4"
       is_visible="true"
       lpeversion="1" />
    <inkscape:path-effect
       effect="spiro"
       id="path-effect5730-7"
       is_visible="true"
       lpeversion="1" />
    <inkscape:path-effect
       effect="spiro"
       id="path-effect5718-4-1"
       is_visible="true"
       lpeversion="1" />
    <inkscape:path-effect
       effect="spiro"
       id="path-effect5730-7-6"
       is_visible="true"
       lpeversion="1" />
  </defs>
  <g
     inkscape:label="Layer 1"
     inkscape:groupmode="layer"
     id="layer1">
    <path
       style="opacity:0.45;fill:none;stroke:#ffcc00;stroke-width:15.875;stroke-linecap:round;stroke-linejoin:round;stroke-dasharray:none"
       d="M 954.48649,842.10811 H 341.51351 C 259.24645,836.69375 180.31472,792.84299 132.25553,725.85419 84.196342,658.86539 67.946946,570.04499 89.176331,490.38008 110.40572,410.71517 168.69986,341.75939 243.72147,307.5696 c 75.02162,-34.1898 165.30762,-32.94683 239.3596,3.29526 28.29437,13.84767 54.27084,32.54966 75.89189,55.45947 46.57578,49.35201 71.5387,119.03174 64.47282,186.52247 -7.06588,67.49072 -46.80498,131.30559 -105.49132,165.37666 -29.34317,17.03554 -62.95673,26.72829 -96.87517,27.60625 -33.91844,0.87795 -68.06814,-7.09491 -97.93864,-23.18791 -29.8705,-16.093 -55.3678,-40.29721 -72.71472,-69.45738 -17.34692,-29.16017 -26.45799,-63.20974 -25.66918,-97.13037 0.91736,-39.44868 15.45108,-78.60054 41.20387,-108.4976 25.75278,-29.89706 62.65591,-50.16942 101.82315,-54.96185 47.68037,-5.83408 97.97941,12.2246 130.04751,47.98899 16.03405,17.8822 27.52575,39.83527 32.89978,63.24432 5.37403,23.40904 4.59867,48.22549 -2.40675,71.19912 -9.51287,31.19657 -30.66566,58.69521 -58.37838,75.89189"
       id="path4958"
       inkscape:path-effect="#path-effect4960"
       inkscape:original-d="M 954.48649,842.10811 H 341.51351 c 0,0 94.37864,-354.16191 141.56756,-531.24325 47.18894,-177.08134 50.59486,36.97325 75.89189,55.45947 25.29705,18.4862 -222.81055,126.48674 -334.21621,189.72972 -111.40566,63.24298 95.35162,-108.97272 143.02702,-163.45945 47.67543,-54.48675 107.02729,121.62187 160.54054,182.43243 53.51325,60.81054 -38.91864,50.59484 -58.37838,75.89189" />
    <path
       style="opacity:0.45;fill:none;stroke:#ffe680;stroke-width:15.875;stroke-linecap:round;stroke-linejoin:round;stroke-dasharray:none"
       d="M 345.89189,812.18917 C 301.40182,806.48675 258.5555,788.45871 223.37208,760.63767 188.18865,732.81662 160.76761,695.28125 144.96113,653.3046 129.15465,611.32795 125.00742,565.02874 133.10205,520.91116 c 8.09464,-44.11758 28.40825,-85.92876 58.08714,-119.55981 6.83289,-7.74279 14.1491,-15.059 21.89189,-21.89189"
       id="path5704"
       inkscape:path-effect="#path-effect5706"
       inkscape:original-d="M 345.89189,812.18917 C 294.3246,675.24351 242.75702,538.29756 191.18919,401.35135 139.62136,264.40513 205.78405,386.75701 213.08108,379.45946" />
    <path
       style="opacity:0.45;fill:none;stroke:#ffe680;stroke-width:15.875;stroke-linecap:round;stroke-linejoin:round;stroke-dasharray:none"
       d="m 316.70271,484.54053 c 13.89647,-19.10855 35.03229,-32.81506 58.14731,-37.70835 23.11502,-4.89329 47.99197,-0.92737 68.43964,10.91076 20.44767,11.83813 36.27385,31.43718 43.53984,53.91949 7.26599,22.4823 5.90348,47.63652 -3.74843,69.20244 -4.03988,9.02658 -9.4754,17.42694 -16.05404,24.81079"
       id="path5708"
       inkscape:path-effect="#path-effect5710"
       inkscape:original-d="m 316.70271,484.54053 c 55.45971,32.10837 110.91918,64.21649 166.37836,96.32434 55.45921,32.10784 -10.70242,16.54079 -16.05404,24.81079" />
    <path
       style="opacity:0.45;fill:none;stroke:#ffe680;stroke-width:6.61458;stroke-linecap:round;stroke-linejoin:round;stroke-dasharray:none"
       d="m 1327.3783,782.27027 h -201.4054 c -17.7583,-1.83636 -27.0268,-11.78215 -36.4406,-22.91157 -9.4138,-11.12941 -15.2802,-25.21468 -16.5498,-39.7361 -1.2697,-14.52141 2.0635,-29.41101 9.4031,-42.0052 7.3396,-12.59418 18.6514,-22.83401 31.9117,-28.88768 17.2386,-7.86986 37.8826,-8.4029 55.1289,-0.54973 8.6231,3.92658 16.3406,9.86042 22.2508,17.26624 5.9102,7.40583 9.9931,16.2783 11.6473,25.60782 1.423,8.02576 1.0462,16.38134 -1.2307,24.2078 -2.2769,7.82646 -6.4627,15.10771 -12.1821,20.91514 -5.7194,5.80743 -12.9706,10.11794 -20.8428,12.23162 -7.8721,2.11367 -16.3468,2.00792 -24.1228,-0.43565 -10.9556,-3.44272 -20.3364,-11.61161 -25.2525,-21.98992 -4.916,-10.37831 -5.2941,-22.81167 -1.0178,-33.46952"
       id="path5712"
       sodipodi:nodetypes="ccssscssssssssc" />
    <path
       style="opacity:0.45;fill:none;stroke:#ffcc00;stroke-width:6.61458;stroke-linecap:round;stroke-linejoin:round;stroke-dasharray:none"
       d="m 1237.3604,768.57729 h -99.3294 c -16.1901,-2.65491 -30.9096,-13.14742 -38.6997,-27.58638 -7.7901,-14.43895 -8.477,-32.50228 -1.806,-47.49117 0.9077,-2.03958 1.9424,-4.02265 3.096,-5.93395"
       id="path5716"
       inkscape:path-effect="#path-effect5718"
       inkscape:original-d="m 1237.3604,768.57729 h -99.3294 c 0,0 -27.0036,-50.05144 -40.5057,-75.07755 -13.5022,-25.02609 2.0642,-3.95571 3.096,-5.93395" />
    <path
       style="opacity:0.45;fill:none;stroke:#ffcc00;stroke-width:6.61458;stroke-linecap:round;stroke-linejoin:round;stroke-dasharray:none"
       d="m 1182.4067,678.27784 c 3.9799,4.91485 6.6235,10.90121 7.5751,17.15339 0.9516,6.25217 0.2086,12.75397 -2.1288,18.63032 -2.3375,5.87634 -6.2635,11.11202 -11.2495,15.00235 -4.986,3.89033 -11.0192,6.42525 -17.2876,7.26358 -0.8993,0.12027 -1.8032,0.20636 -2.709,0.25802"
       id="path5728"
       inkscape:path-effect="#path-effect5730"
       inkscape:original-d="m 1182.4067,678.27784 c -7.6967,19.35014 -15.3936,38.70002 -23.0908,58.04964 -7.6973,19.34961 -1.8058,0.17227 -2.709,0.25802" />
    <path
       style="fill:none;stroke:#ffe680;stroke-width:10.5833;stroke-linecap:round;stroke-linejoin:round;stroke-dasharray:none;stroke-opacity:1;opacity:0.45"
       d="m 1362.0653,874.00206 h 336.4387 c 31.1806,-4.95401 45.147,-19.68155 60.8724,-38.27273 15.7253,-18.59119 25.5249,-42.12001 27.6458,-66.37738 2.1208,-24.25737 -3.447,-49.12978 -15.7075,-70.1678 -12.2605,-21.03802 -31.1563,-38.1432 -53.3071,-48.25559 -28.7964,-13.14625 -63.2812,-14.03666 -92.0903,-0.9183 -14.4045,6.55918 -27.2964,16.47139 -37.169,28.84249 -9.8727,12.3711 -16.6931,27.19217 -19.4563,42.77671 -2.3771,13.40666 -1.7475,27.36429 2.0559,40.43804 3.8034,13.07376 10.7955,25.23675 20.3495,34.9378 9.554,9.70105 21.667,16.90156 34.817,20.43236 13.15,3.5308 27.3066,3.35416 40.2961,-0.72772 18.3008,-5.75091 33.9711,-19.39667 42.1832,-36.73316 8.212,-17.3365 8.8436,-38.10589 1.7002,-55.90935"
       id="path5712-1"
       sodipodi:nodetypes="ccssssssssssssc" />
    <path
       style="fill:none;stroke:#ffcc00;stroke-width:10.58333333;stroke-linecap:round;stroke-linejoin:round;stroke-dasharray:none;opacity:0.45"
       d="m 1512.4362,851.12855 h 165.9253 c 27.0449,-4.43495 51.633,-21.96222 64.646,-46.08183 13.013,-24.11962 14.1605,-54.29357 3.017,-79.33185 -1.5163,-3.40702 -3.2447,-6.71966 -5.1717,-9.9124"
       id="path5716-1"
       inkscape:path-effect="#path-effect5718-4"
       inkscape:original-d="m 1512.4362,851.12855 h 165.9253 c 0,0 45.1083,-83.60868 67.663,-125.41368 22.5548,-41.80496 -3.4482,-6.60784 -5.1717,-9.9124" />
    <path
       style="fill:none;stroke:#ffcc00;stroke-width:10.58333333;stroke-linecap:round;stroke-linejoin:round;stroke-dasharray:none;opacity:0.45"
       d="m 1604.2339,700.28737 c -6.6482,8.21004 -11.0643,18.21 -12.6538,28.65397 -1.5896,10.44398 -0.3485,21.30495 3.5561,31.12111 3.9047,9.81616 10.4628,18.56212 18.7917,25.06074 8.329,6.49863 18.4072,10.7331 28.8782,12.1335 1.5022,0.20091 3.0121,0.34472 4.5252,0.43101"
       id="path5728-7"
       inkscape:path-effect="#path-effect5730-7"
       inkscape:original-d="m 1604.2339,700.28737 c 12.857,32.32354 25.7143,64.64665 38.5722,96.96932 12.8579,32.32266 3.0165,0.28777 4.5252,0.43101" />
    <path
       style="fill:none;stroke:#ffe680;stroke-width:10.5833;stroke-linecap:round;stroke-linejoin:round;stroke-dasharray:none;stroke-opacity:1;opacity:0.45"
       d="m 1525.1785,54.605357 h 275.1851 c 25.5037,4.034032 36.9273,16.026614 49.7897,31.165342 12.8623,15.138741 20.8777,34.298161 22.6125,54.050851 1.7346,19.75269 -2.8195,40.0062 -12.8478,57.13738 -10.0282,17.13119 -25.4838,31.05987 -43.6017,39.29436 -23.5536,10.70494 -51.7599,11.43 -75.3239,0.74776 -11.782,-5.34111 -22.3267,-13.41259 -30.4018,-23.48633 -8.0753,-10.07374 -13.6539,-22.14249 -15.914,-34.83292 -1.9443,-10.91699 -1.4294,-22.28264 1.6816,-32.92855 3.1109,-10.64591 8.83,-20.55019 16.6445,-28.44972 7.8146,-7.89953 17.7222,-13.76288 28.4781,-16.63799 10.7558,-2.87512 22.335,-2.731282 32.9596,0.59258 14.9689,4.68294 27.7861,15.79463 34.5031,29.91167 6.7169,14.11705 7.2335,31.02949 1.3907,45.52678"
       id="path5712-1-5"
       sodipodi:nodetypes="ccssssssssssssc" />
    <path
       style="fill:none;stroke:#ffcc00;stroke-width:10.5833;stroke-linecap:round;stroke-linejoin:round;stroke-dasharray:none;opacity:0.45"
       d="m 1648.1722,73.231172 h 135.7162 c 22.0891,3.50004 42.2201,17.740165 52.876,37.403118 10.656,19.66295 11.5955,44.30347 2.4679,64.72078 -1.2405,2.77493 -2.6542,5.47244 -4.2301,8.07163"
       id="path5716-1-1"
       inkscape:path-effect="#path-effect5718-4-1"
       inkscape:original-d="m 1648.1722,73.231172 h 135.7162 c 0,0 36.8956,68.082238 55.3439,102.123898 18.4484,34.04162 -2.8204,5.38074 -4.2301,8.07163" />
    <path
       style="fill:none;stroke:#ffcc00;stroke-width:10.5833;stroke-linecap:round;stroke-linejoin:round;stroke-dasharray:none;opacity:0.45"
       d="m 1723.2568,196.06059 c -5.3959,-6.70128 -8.9721,-14.85354 -10.2483,-23.36199 -1.2763,-8.50845 -0.2494,-17.35117 2.9429,-25.34068 3.1922,-7.98951 8.5415,-15.10521 15.3296,-20.39153 6.788,-5.28632 14.9972,-8.72965 23.5253,-9.86757 1.2287,-0.16395 2.4637,-0.28106 3.7014,-0.35097"
       id="path5728-7-4"
       inkscape:path-effect="#path-effect5730-7-6"
       inkscape:original-d="m 1723.2568,196.06059 c 10.5162,-26.32094 21.0326,-52.64153 31.5495,-78.96177 10.517,-26.320214 2.4673,-0.23433 3.7014,-0.35097" />
    <path
       style="opacity:0.45;fill:none;stroke:#ffe680;stroke-width:10.5833;stroke-linecap:round;stroke-linejoin:round;stroke-dasharray:none"
       d="M 582.32431,878.59459 H 353.18919 c -13.30306,4.62286 -25.0862,13.51326 -33.18287,25.03655 -8.09666,11.5233 -12.46674,25.62237 -12.30672,39.70487 0.16003,14.0825 4.84937,28.07862 13.2058,39.41495 8.35644,11.33633 20.33855,19.95664 33.74323,24.27604 10.1883,3.283 21.16913,4.1029 31.72072,2.302 10.55159,-1.8009 20.65339,-6.2257 29.08976,-12.81408 8.43636,-6.58841 15.18573,-15.33232 19.36002,-25.18902 4.17429,-9.85671 5.75733,-20.80655 4.47815,-31.43402 -1.00432,-8.34396 -3.80502,-16.56088 -8.75676,-23.35136 -6.63628,-9.10054 -17.11681,-15.29933 -28.2886,-16.7315 -11.1718,-1.43217 -22.87704,1.92251 -31.59429,9.0548 -8.71725,7.1323 -14.32336,17.94146 -15.13179,29.17563 -0.80842,11.23417 3.19227,22.73465 10.79849,31.0416"
       id="path6504" />
    <path
       style="opacity:0.45;fill:none;stroke:#ffcc00;stroke-width:10.5833;stroke-linecap:round;stroke-linejoin:round;stroke-dasharray:none"
       d="m 380.80566,953.56216 c -2.02079,-4.42319 -2.49567,-9.53488 -1.32426,-14.25463 1.17141,-4.71974 3.98132,-9.01617 7.8358,-11.98116 3.85449,-2.96499 8.72793,-4.57882 13.59024,-4.5004 4.8623,0.0784 9.68116,1.8486 13.43802,4.93635 4.20236,3.45391 7.0275,8.53915 7.73996,13.9319"
       id="path6508"
       inkscape:path-effect="#path-effect6510"
       inkscape:original-d="m 380.80566,953.56216 c 11.18021,-8.5997 22.36012,-17.19964 33.5398,-25.79984 11.17968,-8.60023 5.16022,9.2882 7.73996,13.9319" />
  </g>
</svg>
