<?xml version="1.0" encoding="UTF-8" standalone="no"?>
<!-- Created with Inkscape (http://www.inkscape.org/) -->

<svg
   width="592.39801"
   height="592.39801"
   viewBox="0 0 156.73864 156.73865"
   version="1.1"
   id="svg706"
   inkscape:version="1.2.2 (732a01da63, 2022-12-09)"
   sodipodi:docname="BKLogoBorder.svg"
   xmlns:inkscape="http://www.inkscape.org/namespaces/inkscape"
   xmlns:sodipodi="http://sodipodi.sourceforge.net/DTD/sodipodi-0.dtd"
   xmlns="http://www.w3.org/2000/svg"
   xmlns:svg="http://www.w3.org/2000/svg">
  <sodipodi:namedview
     id="namedview708"
     pagecolor="#ffffff"
     bordercolor="#000000"
     borderopacity="0.25"
     inkscape:showpageshadow="2"
     inkscape:pageopacity="0.0"
     inkscape:pagecheckerboard="0"
     inkscape:deskcolor="#d1d1d1"
     inkscape:document-units="mm"
     showgrid="false"
     inkscape:zoom="1.0255231"
     inkscape:cx="186.73397"
     inkscape:cy="316.42388"
     inkscape:window-width="1920"
     inkscape:window-height="1001"
     inkscape:window-x="-9"
     inkscape:window-y="-9"
     inkscape:window-maximized="1"
     inkscape:current-layer="layer1" />
  <defs
     id="defs703" />
  <g
     inkscape:label="Layer 1"
     inkscape:groupmode="layer"
     id="layer1"
     transform="translate(-25.226312,-10.088654)">
    <path
       id="path113922-8-0"
       style="fill:none;stroke:#c8ab37;stroke-width:1.5875;stroke-dasharray:none"
       d="m 60.550131,81.732953 c 0,-13.29959 10.78145,-24.08103 24.08104,-24.08102 13.29958,0 24.081019,10.78144 24.081019,24.08102"
       sodipodi:nodetypes="csc" />
    <path
       id="path12855-8"
       style="fill:none;stroke:#ffd42a;stroke-width:1.5875;stroke-linecap:round;stroke-linejoin:round;stroke-dasharray:none"
       d="m 82.305521,114.59393 c 3.86172,0.45566 7.70065,0.63782 11.52285,0.61917 3.94334,-0.0192 7.868859,-0.25224 11.783229,-0.61917 M 49.697721,83.975693 c 6.64085,15.48346 15.82127,25.754127 27.69856,30.489107" />
    <path
       style="fill:none;stroke:#44aa00;stroke-width:1.5875;stroke-linecap:round;stroke-linejoin:round;stroke-dasharray:none"
       d="m 160.18192,81.732953 c 1.84887,-21.2633 -7.68749,-30.73475 -21.18733,-36.10117 0.96263,12.06421 -3.70465,16.6062 -9.30177,21.29069 -7.49825,9.66694 -10.89163,13.60461 -14.15934,14.81048 z"
       id="path12879-7"
       sodipodi:nodetypes="ccccc" />
    <path
       style="fill:none;stroke:#44aa00;stroke-width:1.5875;stroke-linecap:round;stroke-linejoin:round;stroke-dasharray:none"
       d="m 143.02535,49.042433 c 4.42049,7.37441 5.87593,11.08432 5.48426,15.54611 -0.53662,6.11307 -2.40275,14.32323 -8.37815,17.14441"
       id="path12881-6"
       sodipodi:nodetypes="csc" />
    <path
       style="fill:none;stroke:#44aa00;stroke-width:1.5875;stroke-linecap:round;stroke-linejoin:round;stroke-dasharray:none"
       d="m 147.92589,58.980333 c 0,0 -0.99081,4.7392 -8.9567,0.86588"
       id="path13609-3" />
    <path
       style="fill:none;stroke:#44aa00;stroke-width:1.5875;stroke-linecap:round;stroke-linejoin:round;stroke-dasharray:none"
       d="m 148.50962,64.588543 c 6.976,-2.25756 6.46443,6.43914 6.976,-2.25756"
       id="path13611-2" />
    <path
       style="fill:none;stroke:#44aa00;stroke-width:1.5875;stroke-linecap:round;stroke-linejoin:round;stroke-dasharray:none"
       d="m 146.52236,73.981953 c -10.5495,-3.97741 -5.06839,3.69614 -10.69568,-3.97741"
       id="path13613-8" />
    <path
       style="fill:none;stroke:#44aa00;stroke-width:1.5875;stroke-linecap:round;stroke-linejoin:round;stroke-dasharray:none"
       d="m 145.47908,76.293373 c 9.43184,3.1348 8.91508,-2.75631 9.43184,3.1348"
       id="path13615-8" />
    <path
       style="fill:none;stroke:#c8ab37;stroke-width:1.5875;stroke-linecap:round;stroke-linejoin:round;stroke-dasharray:none"
       d="m 64.572221,77.897343 c 0.70988,-2.15477 1.6023,-4.08136 2.66125,-5.7998 m 3.89796,-3.96023 c 3.71265,-5.63284 10.05858,-8.33779 18.51815,-7.02946"
       id="path13621-5"
       sodipodi:nodetypes="cccc" />
    <path
       style="fill:none;stroke:#d4aa00;stroke-width:1.5875;stroke-linecap:round;stroke-linejoin:round;stroke-dasharray:none"
       d="m 126.96268,68.455823 c 1.89712,-7.23516 4.07217,-24.55809 -15.35659,-32.53921"
       id="path13623-5"
       sodipodi:nodetypes="cc" />
    <path
       style="fill:none;stroke:#d4aa00;stroke-width:1.5875;stroke-linecap:round;stroke-linejoin:round;stroke-dasharray:none"
       d="m 103.75127,27.545033 c 19.79204,1.13688 13.29329,11.17702 13.29329,11.17702 0,0 -15.61872,2.67226 -13.29329,-11.17702 z"
       id="path14351-7" />
    <path
       style="fill:none;stroke:#d4aa00;stroke-width:1.5875;stroke-linecap:round;stroke-linejoin:round;stroke-dasharray:none"
       d="m 127.63177,53.981313 c 0,0 4.28315,-2.56177 3.92141,-8.65959"
       id="path14353-0" />
    <path
       style="fill:none;stroke:#d4aa00;stroke-width:1.5875;stroke-linecap:round;stroke-linejoin:round;stroke-dasharray:none"
       d="m 131.19904,48.892323 c 0,0 9.08746,-2.64042 1.28431,-12.82068"
       id="path14355-7" />
    <path
       style="fill:none;stroke:#d4aa00;stroke-width:1.5875;stroke-linecap:round;stroke-linejoin:round;stroke-dasharray:none"
       d="m 131.19904,48.892323 c 0,0 -6.67385,-1.09013 1.28431,-12.82068"
       id="path14357-3" />
    <path
       style="fill:none;stroke:#d4aa00;stroke-width:1.5875;stroke-linecap:round;stroke-linejoin:round;stroke-dasharray:none"
       d="m 128.04497,62.156063 c 0,0 -6.56871,0.16721 -9.8243,-6.44737"
       id="path14359-5" />
    <path
       style="fill:none;stroke:#d4aa00;stroke-width:1.5875;stroke-linecap:round;stroke-linejoin:round;stroke-dasharray:none"
       d="m 111.55439,50.437693 c 3.82115,12.81236 9.15894,8.69594 9.15894,8.69594 0,0 5.25877,-5.75038 -9.15894,-8.69594 z"
       id="path14361-0" />
    <path
       style="fill:none;stroke:#502d16;stroke-width:2.64583;stroke-linecap:round;stroke-linejoin:round;stroke-dasharray:none"
       d="m 153.12916,53.012143 12.22246,-37.08792 z"
       id="path15816-7"
       sodipodi:nodetypes="ccc" />
    <path
       style="fill:none;stroke:#502d16;stroke-width:2.64583;stroke-linecap:round;stroke-linejoin:round;stroke-dasharray:none"
       d="m 139.61471,44.753283 -4.2265,-33.36012 z"
       id="path15818-1"
       sodipodi:nodetypes="ccc" />
    <path
       style="fill:none;stroke:#4d4d4d;stroke-width:1.5875;stroke-linecap:round;stroke-linejoin:round;stroke-dasharray:none"
       d="m 137.2376,137.30578 c 1.05865,1.73772 0.98711,4.12127 0,7.028 7.72294,-2.20328 13.65033,-5.57345 17.77669,-9.71517 -2.59107,-0.96519 -5.61733,-1.3278 -7.02799,-3.92741 z"
       id="path15822-9"
       sodipodi:nodetypes="ccccc" />
    <path
       style="fill:none;stroke:#999999;stroke-width:1.5875;stroke-linecap:round;stroke-linejoin:round;stroke-dasharray:none"
       d="m 137.2376,144.33378 c 1.59704,4.35836 0.25397,8.37083 -1.41092,12.34543 12.19761,2.17838 18.93064,5.5353 27.18633,9.35445 l -10.2314,-12.57004 c -1.79525,0.41206 -2.66509,0.0194 -5.04265,-1.31547 -1.18569,-3.36164 -1.2211,-5.35661 1.6809,-6.86965 2.33184,-0.9451 4.39159,-0.71112 6.13884,0.87699 1.42231,2.38024 0.69918,3.99426 -0.58465,5.40803 l 9.20825,13.30082 c -1.3477,-8.37464 -0.97535,-16.47566 1.16932,-25.43236 -4.74895,-0.19268 -7.92014,-2.09461 -10.33733,-4.81337 -4.5425,4.38318 -10.39435,7.68258 -17.77669,9.71517 z"
       id="path15824-0"
       sodipodi:nodetypes="cccccccccccc" />
    <path
       style="fill:none;stroke:#a05a2c;stroke-width:1.5875;stroke-linecap:round;stroke-linejoin:round;stroke-dasharray:none"
       d="m 137.2376,137.30578 c -4.54907,-2.14924 -8.37862,-4.92806 -11.36883,-8.4413 h 7.13788 c 1.40628,-0.14167 2.06149,-0.92331 2.1704,-2.17041 l -0.0942,-8.32673 c 1.31898,-0.76857 2.53378,-1.54047 3.6771,-2.31463 4.90622,4.35642 6.96101,9.52753 9.22634,14.63849 z"
       id="path15826-9"
       sodipodi:nodetypes="cccccccc" />
    <path
       id="path7020-9"
       style="fill:none;stroke:#000000;stroke-width:1.5875;stroke-linecap:round;stroke-linejoin:round;stroke-dasharray:none"
       d="M 41.305061,81.732953 H 164.10755 Z m 93.777789,36.634387 c 0.0444,0.17342 0.0942,0.3281 0.0942,0.51573 v 7.811 c 0,1.20241 -0.96801,2.17041 -2.17042,2.17041 H 72.428631 c -1.2024,0 -2.17041,-0.968 -2.17041,-2.17041 v -7.811 c 0,-0.16433 -0.008,-0.29705 0.026,-0.45075 M 164.10755,81.732953 c -4.77389,15.56504 -15.22193,28.587057 -29.0247,36.634387 m -64.798629,0.065 C 56.590531,110.38278 46.083211,97.259793 41.326541,81.786763" />
    <path
       style="fill:none;stroke:#a05a2c;stroke-width:1.5875;stroke-linecap:round;stroke-linejoin:round;stroke-dasharray:none"
       d="m 114.65725,80.155533 c -12.92307,-22.91597 -31.393619,-40.64358 -51.107199,-58.46704 -3.3381,0.37695 -6.20081,1.65717 -8.5645,3.88549 8.3518,12.78163 14.47864,23.97336 23.06727,31.42983"
       id="path15828-4"
       sodipodi:nodetypes="cccc" />
    <path
       style="fill:none;stroke:#4d4d4d;stroke-width:1.5875;stroke-linecap:round;stroke-linejoin:round;stroke-dasharray:none"
       d="m 55.867431,26.930053 c 2.003,-0.32929 3.79827,-0.81246 5.35231,-1.47431 1.50055,-0.63908 2.77618,-1.44475 3.79674,-2.43937"
       id="path15830-2"
       sodipodi:nodetypes="csc" />
  </g>
</svg>
