<?xml version="1.0" encoding="UTF-8" standalone="no"?>
<!-- Created with Inkscape (http://www.inkscape.org/) -->

<svg
   width="592.39801"
   height="592.39801"
   viewBox="0 0 156.73864 156.73864"
   version="1.1"
   id="svg706"
   inkscape:version="1.2.2 (732a01da63, 2022-12-09)"
   sodipodi:docname="BKLogoColor.svg"
   inkscape:export-filename="BKLogoColor.png"
   inkscape:export-xdpi="96"
   inkscape:export-ydpi="96"
   xmlns:inkscape="http://www.inkscape.org/namespaces/inkscape"
   xmlns:sodipodi="http://sodipodi.sourceforge.net/DTD/sodipodi-0.dtd"
   xmlns:xlink="http://www.w3.org/1999/xlink"
   xmlns="http://www.w3.org/2000/svg"
   xmlns:svg="http://www.w3.org/2000/svg">
  <sodipodi:namedview
     id="namedview708"
     pagecolor="#ffffff"
     bordercolor="#000000"
     borderopacity="0.25"
     inkscape:showpageshadow="2"
     inkscape:pageopacity="0.0"
     inkscape:pagecheckerboard="0"
     inkscape:deskcolor="#d1d1d1"
     inkscape:document-units="mm"
     showgrid="false"
     inkscape:zoom="1.0255231"
     inkscape:cx="376.88083"
     inkscape:cy="248.16603"
     inkscape:window-width="1920"
     inkscape:window-height="1001"
     inkscape:window-x="-9"
     inkscape:window-y="-9"
     inkscape:window-maximized="1"
     inkscape:current-layer="layer1" />
  <defs
     id="defs703">
    <linearGradient
       inkscape:collect="always"
       xlink:href="#linearGradient28881"
       id="linearGradient28875"
       x1="621.35742"
       y1="155.49438"
       x2="621.25409"
       y2="166.84059"
       gradientUnits="userSpaceOnUse"
       gradientTransform="translate(-504.20058,-119.42276)" />
    <linearGradient
       inkscape:collect="always"
       id="linearGradient28881">
      <stop
         style="stop-color:#ffd42a;stop-opacity:1"
         offset="0"
         id="stop28877" />
      <stop
         style="stop-color:#ffeeaa;stop-opacity:1"
         offset="1"
         id="stop28879" />
    </linearGradient>
    <linearGradient
       inkscape:collect="always"
       xlink:href="#linearGradient19886"
       id="linearGradient19888"
       x1="2111.8164"
       y1="894.05627"
       x2="2462.8906"
       y2="764.43481"
       gradientUnits="userSpaceOnUse"
       gradientTransform="matrix(0.26458333,0,0,0.26458333,-504.20058,-119.42276)" />
    <linearGradient
       inkscape:collect="always"
       id="linearGradient19886">
      <stop
         style="stop-color:#ffff00;stop-opacity:1;"
         offset="0"
         id="stop19882" />
      <stop
         style="stop-color:#ff6600;stop-opacity:1"
         offset="1"
         id="stop19884" />
    </linearGradient>
    <linearGradient
       inkscape:collect="always"
       xlink:href="#linearGradient21695"
       id="linearGradient21697"
       x1="2123.4548"
       y1="756.27283"
       x2="2204.4607"
       y2="681.55603"
       gradientUnits="userSpaceOnUse"
       gradientTransform="matrix(0.26458333,0,0,0.26458333,-504.20058,-119.42276)" />
    <linearGradient
       inkscape:collect="always"
       id="linearGradient21695">
      <stop
         style="stop-color:#ffeeaa;stop-opacity:1"
         offset="0"
         id="stop21691" />
      <stop
         style="stop-color:#f4eed7;stop-opacity:1"
         offset="1"
         id="stop21693" />
    </linearGradient>
    <linearGradient
       inkscape:collect="always"
       xlink:href="#linearGradient25139"
       id="linearGradient25141"
       x1="2079.0947"
       y1="547.5722"
       x2="2278.4858"
       y2="756.78455"
       gradientUnits="userSpaceOnUse"
       gradientTransform="matrix(0.26458333,0,0,0.26458333,-504.20058,-119.42276)" />
    <linearGradient
       inkscape:collect="always"
       id="linearGradient25139">
      <stop
         style="stop-color:#502d16;stop-opacity:1"
         offset="0"
         id="stop25135" />
      <stop
         style="stop-color:#c87137;stop-opacity:1"
         offset="1"
         id="stop25137" />
    </linearGradient>
    <linearGradient
       inkscape:collect="always"
       xlink:href="#linearGradient25218"
       id="linearGradient25220"
       x1="2361.2024"
       y1="933.9613"
       x2="2386.7188"
       y2="957.8125"
       gradientUnits="userSpaceOnUse"
       gradientTransform="matrix(0.26458333,0,0,0.26458333,-504.20058,-119.42276)" />
    <linearGradient
       inkscape:collect="always"
       id="linearGradient25218">
      <stop
         style="stop-color:#c87137;stop-opacity:1"
         offset="0"
         id="stop25214" />
      <stop
         style="stop-color:#deaa87;stop-opacity:1"
         offset="1"
         id="stop25216" />
    </linearGradient>
    <linearGradient
       inkscape:collect="always"
       xlink:href="#linearGradient26094"
       id="linearGradient26096"
       x1="2059.5339"
       y1="548.53418"
       x2="2088.8457"
       y2="538.35553"
       gradientUnits="userSpaceOnUse"
       gradientTransform="matrix(0.26458333,0,0,0.26458333,-504.20058,-119.42276)" />
    <linearGradient
       inkscape:collect="always"
       id="linearGradient26094">
      <stop
         style="stop-color:#808080;stop-opacity:1;"
         offset="0"
         id="stop26090" />
      <stop
         style="stop-color:#808080;stop-opacity:0;"
         offset="1"
         id="stop26092" />
    </linearGradient>
    <linearGradient
       inkscape:collect="always"
       xlink:href="#linearGradient26175"
       id="linearGradient26177"
       x1="2371.2891"
       y1="971.96686"
       x2="2426.8496"
       y2="961.49847"
       gradientUnits="userSpaceOnUse"
       gradientTransform="matrix(0.26458333,0,0,0.26458333,-504.20058,-119.42276)" />
    <linearGradient
       inkscape:collect="always"
       id="linearGradient26175">
      <stop
         style="stop-color:#4d4d4d;stop-opacity:1;"
         offset="0"
         id="stop26171" />
      <stop
         style="stop-color:#808080;stop-opacity:1"
         offset="1"
         id="stop26173" />
    </linearGradient>
    <linearGradient
       inkscape:collect="always"
       xlink:href="#linearGradient26185"
       id="linearGradient26187"
       x1="2370.6108"
       y1="999.7641"
       x2="2463.2939"
       y2="1060.7983"
       gradientUnits="userSpaceOnUse"
       gradientTransform="matrix(0.26458333,0,0,0.26458333,-504.20058,-119.42276)" />
    <linearGradient
       inkscape:collect="always"
       id="linearGradient26185">
      <stop
         style="stop-color:#b3b3b3;stop-opacity:1;"
         offset="0"
         id="stop26181" />
      <stop
         style="stop-color:#ffffff;stop-opacity:1"
         offset="1"
         id="stop26183" />
    </linearGradient>
    <linearGradient
       inkscape:collect="always"
       xlink:href="#linearGradient28857"
       id="linearGradient28859"
       x1="2241.9714"
       y1="559.26068"
       x2="2290.0862"
       y2="597.71259"
       gradientUnits="userSpaceOnUse"
       gradientTransform="matrix(0.26458333,0,0,0.26458333,-504.20058,-119.42276)" />
    <linearGradient
       inkscape:collect="always"
       id="linearGradient28857">
      <stop
         style="stop-color:#ffdd55;stop-opacity:1"
         offset="0"
         id="stop28853" />
      <stop
         style="stop-color:#ffeeaa;stop-opacity:1"
         offset="1"
         id="stop28855" />
    </linearGradient>
    <linearGradient
       inkscape:collect="always"
       xlink:href="#linearGradient28881"
       id="linearGradient28889"
       x1="2348.4375"
       y1="587.69531"
       x2="2343.5835"
       y2="636.15143"
       gradientUnits="userSpaceOnUse"
       gradientTransform="matrix(0.26458333,0,0,0.26458333,-504.20058,-119.42276)" />
    <linearGradient
       inkscape:collect="always"
       xlink:href="#linearGradient28881"
       id="linearGradient28867"
       x1="2274.1719"
       y1="646.40106"
       x2="2303.3235"
       y2="669.33594"
       gradientUnits="userSpaceOnUse"
       gradientTransform="matrix(0.26458333,0,0,0.26458333,-504.20058,-119.42276)" />
    <linearGradient
       inkscape:collect="always"
       xlink:href="#linearGradient29039"
       id="linearGradient29041"
       x1="2296.0938"
       y1="757.22058"
       x2="2402.2314"
       y2="672.7171"
       gradientUnits="userSpaceOnUse"
       gradientTransform="matrix(0.26458333,0,0,0.26458333,-504.20058,-119.42276)" />
    <linearGradient
       inkscape:collect="always"
       id="linearGradient29039">
      <stop
         style="stop-color:#44aa00;stop-opacity:1;"
         offset="0"
         id="stop29035" />
      <stop
         style="stop-color:#7fff2a;stop-opacity:1"
         offset="1"
         id="stop29037" />
    </linearGradient>
    <linearGradient
       inkscape:collect="always"
       xlink:href="#linearGradient29047"
       id="linearGradient29049"
       x1="2411.8003"
       y1="702.16437"
       x2="2441.1313"
       y2="680.23895"
       gradientUnits="userSpaceOnUse"
       gradientTransform="matrix(0.26458333,0,0,0.26458333,-504.20058,-119.42276)" />
    <linearGradient
       inkscape:collect="always"
       id="linearGradient29047">
      <stop
         style="stop-color:#44aa00;stop-opacity:1;"
         offset="0"
         id="stop29043" />
      <stop
         style="stop-color:#b3ff80;stop-opacity:1"
         offset="1"
         id="stop29045" />
    </linearGradient>
  </defs>
  <g
     inkscape:label="Layer 1"
     inkscape:groupmode="layer"
     id="layer1"
     transform="translate(-9.8997942,-10.657734)">
    <path
       id="path113922-8"
       style="fill:none;stroke:#000000;stroke-width:1.5875;stroke-dasharray:none"
       d="m 45.22361,81.732929 c 0,-13.29959 10.78145,-24.08103 24.08104,-24.08102 13.29958,0 24.081023,10.78144 24.081023,24.08102"
       sodipodi:nodetypes="csc" />
    <path
       style="fill:none;stroke:#000000;stroke-width:1.5875;stroke-linecap:round;stroke-linejoin:round;stroke-dasharray:none"
       d="m 34.3712,83.975669 c 6.64085,15.483457 15.82127,25.754111 27.69856,30.489091"
       id="path7022"
       sodipodi:nodetypes="cc" />
    <path
       style="fill:none;stroke:#000000;stroke-width:1.5875;stroke-linecap:round;stroke-linejoin:round;stroke-dasharray:none"
       d="m 66.979,114.59389 c 3.86172,0.45566 7.70065,0.63782 11.52285,0.61917 3.94334,-0.0192 7.86886,-0.25224 11.783233,-0.61917"
       id="path12855"
       sodipodi:nodetypes="csc" />
    <path
       style="fill:none;stroke:#000000;stroke-width:1.5875;stroke-linecap:round;stroke-linejoin:round;stroke-dasharray:none"
       d="m 144.8554,81.732929 c 1.84887,-21.2633 -7.68749,-30.73475 -21.18733,-36.10117 0.96263,12.06421 -3.70465,16.6062 -9.30177,21.29069 -7.49825,9.66694 -10.89163,13.60461 -14.15934,14.81048 z"
       id="path12879"
       sodipodi:nodetypes="ccccc" />
    <path
       id="path81224-8"
       style="fill:none;stroke:#000000;stroke-width:1.5875;stroke-linejoin:round;stroke-dasharray:none"
       d="m 148.78104,81.732929 c -4.77389,15.565042 -15.22193,28.587041 -29.0247,36.634371 m -64.79864,0.065 C 41.26401,110.38274 30.75669,97.259771 26.00002,81.786739"
       sodipodi:nodetypes="cccc" />
    <path
       style="fill:none;stroke:#000000;stroke-width:1.5875;stroke-linecap:round;stroke-linejoin:round;stroke-dasharray:none"
       d="m 127.69883,49.042409 c 4.42049,7.37441 5.87593,11.08432 5.48426,15.54611 -0.53662,6.11307 -2.40275,14.32323 -8.37815,17.14441"
       id="path12881"
       sodipodi:nodetypes="csc" />
    <path
       id="rect5564"
       style="fill:none;stroke:#000000;stroke-width:1.5875;stroke-linecap:round;stroke-linejoin:round;stroke-dasharray:none"
       d="m 119.75634,118.3673 c 0.0444,0.17342 0.0942,0.3281 0.0942,0.51573 v 7.811 c 0,1.20241 -0.96801,2.17041 -2.17041,2.17041 H 57.10211 c -1.2024,0 -2.17041,-0.968 -2.17041,-2.17041 v -7.811 c 0,-0.16433 -0.008,-0.29705 0.026,-0.45075"
       sodipodi:nodetypes="cssssssc" />
    <path
       style="fill:none;stroke:#000000;stroke-width:1.5875;stroke-linecap:round;stroke-linejoin:round;stroke-dasharray:none"
       d="m 132.59937,58.980309 c 0,0 -0.99081,4.7392 -8.9567,0.86588"
       id="path13609" />
    <path
       style="fill:none;stroke:#000000;stroke-width:1.5875;stroke-linecap:round;stroke-linejoin:round;stroke-dasharray:none"
       d="m 133.1831,64.588519 c 6.976,-2.25756 6.46443,6.43914 6.976,-2.25756"
       id="path13611" />
    <path
       style="fill:none;stroke:#000000;stroke-width:1.5875;stroke-linecap:round;stroke-linejoin:round;stroke-dasharray:none"
       d="m 131.19584,73.981929 c -10.5495,-3.97741 -5.06839,3.69614 -10.69568,-3.97741"
       id="path13613" />
    <path
       style="fill:none;stroke:#000000;stroke-width:1.5875;stroke-linecap:round;stroke-linejoin:round;stroke-dasharray:none"
       d="m 130.15256,76.293349 c 9.43184,3.1348 8.91508,-2.75631 9.43184,3.1348"
       id="path13615" />
    <path
       style="fill:none;stroke:#000000;stroke-width:1.5875;stroke-linecap:round;stroke-linejoin:round;stroke-dasharray:none"
       d="m 49.2457,77.897319 c 0.70988,-2.15477 1.6023,-4.08136 2.66125,-5.7998 m 3.89796,-3.96023 c 3.71265,-5.63284 10.05858,-8.33779 18.51815,-7.02946"
       id="path13621"
       sodipodi:nodetypes="cccc" />
    <path
       style="fill:none;stroke:#000000;stroke-width:1.5875;stroke-linecap:round;stroke-linejoin:round;stroke-dasharray:none"
       d="m 110.58824,71.734359 c 0,0 10.59936,-25.58583 -14.308667,-35.81777"
       id="path13623" />
    <path
       style="fill:none;stroke:#000000;stroke-width:1.5875;stroke-linecap:round;stroke-linejoin:round;stroke-dasharray:none"
       d="m 88.424753,27.545009 c 19.792047,1.13688 13.293297,11.17702 13.293297,11.17702 0,0 -15.61873,2.67226 -13.293297,-11.17702 z"
       id="path14351" />
    <path
       style="fill:none;stroke:#000000;stroke-width:1.5875;stroke-linecap:round;stroke-linejoin:round;stroke-dasharray:none"
       d="m 112.30525,53.981289 c 0,0 4.28316,-2.56177 3.92142,-8.65959"
       id="path14353" />
    <path
       style="fill:url(#linearGradient28875);fill-opacity:1;stroke:#000000;stroke-width:1.5875;stroke-linecap:round;stroke-linejoin:round;stroke-dasharray:none"
       d="m 115.87253,48.892299 c 0,0 9.08745,-2.64042 1.28431,-12.82068"
       id="path14355" />
    <path
       style="fill:none;stroke:#000000;stroke-width:1.5875;stroke-linecap:round;stroke-linejoin:round;stroke-dasharray:none"
       d="m 115.87253,48.892299 c 0,0 -6.67386,-1.09013 1.28431,-12.82068"
       id="path14357" />
    <path
       style="fill:none;stroke:#000000;stroke-width:1.5875;stroke-linecap:round;stroke-linejoin:round;stroke-dasharray:none"
       d="m 112.71845,62.156039 c 0,0 -6.56871,0.16721 -9.8243,-6.44737"
       id="path14359" />
    <path
       style="fill:none;stroke:#000000;stroke-width:1.5875;stroke-linecap:round;stroke-linejoin:round;stroke-dasharray:none"
       d="m 96.227873,50.437669 c 3.821157,12.81236 9.158947,8.69594 9.158947,8.69594 0,0 5.25877,-5.75038 -9.158947,-8.69594 z"
       id="path14361" />
    <path
       style="fill:none;stroke:#000000;stroke-width:2.64583;stroke-linecap:round;stroke-linejoin:round;stroke-dasharray:none"
       d="M 137.80264,53.012119 150.0251,15.924199 Z"
       id="path15816"
       sodipodi:nodetypes="ccc" />
    <path
       style="fill:none;stroke:#000000;stroke-width:2.64583;stroke-linecap:round;stroke-linejoin:round;stroke-dasharray:none"
       d="m 124.28819,44.753259 -4.2265,-33.36012 z"
       id="path15818"
       sodipodi:nodetypes="ccc" />
    <path
       style="fill:none;stroke:#000000;stroke-width:1.5875;stroke-linecap:round;stroke-linejoin:round;stroke-dasharray:none"
       d="m 121.91108,137.30575 c 1.05865,1.73772 0.98711,4.12127 0,7.028 7.72294,-2.20328 13.65033,-5.57345 17.77669,-9.71518 -2.59107,-0.96519 -5.61733,-1.3278 -7.02799,-3.92741 z"
       id="path15822"
       sodipodi:nodetypes="ccccc" />
    <path
       style="fill:none;stroke:#000000;stroke-width:1.5875;stroke-linecap:round;stroke-linejoin:round;stroke-dasharray:none"
       d="m 121.91108,144.33375 c 1.59704,4.35836 0.25397,8.37083 -1.41092,12.34543 12.19761,2.17838 18.93064,5.5353 27.18633,9.35445 l -10.2314,-12.57004 c -1.79525,0.41206 -2.66509,0.0194 -5.04265,-1.31547 -1.18569,-3.36164 -1.2211,-5.35661 1.6809,-6.86965 2.33184,-0.9451 4.39159,-0.71112 6.13884,0.87699 1.42231,2.38024 0.69918,3.99426 -0.58465,5.40803 l 9.20825,13.30082 c -1.3477,-8.37464 -0.97535,-16.47566 1.16932,-25.43236 -4.74895,-0.19268 -7.92014,-2.09461 -10.33733,-4.81338 -4.5425,4.38319 -10.39435,7.68259 -17.77669,9.71518 z"
       id="path15824"
       sodipodi:nodetypes="cccccccccccc" />
    <path
       style="fill:none;stroke:#000000;stroke-width:1.5875;stroke-linecap:round;stroke-linejoin:round;stroke-dasharray:none"
       d="m 121.91108,137.30575 c -4.54906,-2.14925 -8.37862,-4.92807 -11.36883,-8.44131 h 7.13789 c 1.40627,-0.14167 2.06148,-0.92331 2.17039,-2.17041 l -0.0942,-8.32673 c 1.31898,-0.76857 2.53378,-1.54047 3.6771,-2.31463 4.90622,4.35642 6.96101,9.52753 9.22634,14.63849 z"
       id="path15826"
       sodipodi:nodetypes="cccccccc" />
    <path
       style="fill:none;stroke:#000000;stroke-width:1.5875;stroke-linecap:round;stroke-linejoin:round;stroke-dasharray:none"
       d="m 25.97854,81.732929 h 122.8025 z"
       id="path7020" />
    <path
       style="fill:none;stroke:#000000;stroke-width:1.5875;stroke-linecap:round;stroke-linejoin:round;stroke-dasharray:none"
       d="M 100.20696,81.732929 C 87.250243,58.048799 68.3871,39.918769 48.22353,21.688469 c -3.3381,0.37695 -6.20081,1.65717 -8.5645,3.88549 8.81159,13.48529 15.14649,25.20081 24.50892,32.627 11.10449,-2.29038 18.35343,2.42996 24.481623,9.18823 3.0396,4.20051 4.72622,8.93886 4.73609,14.34374 z"
       id="path15828"
       sodipodi:nodetypes="ccccccc" />
    <path
       style="fill:none;stroke:#000000;stroke-width:1.5875;stroke-linecap:round;stroke-linejoin:round;stroke-dasharray:none"
       d="m 40.54091,26.930029 c 2.003,-0.32929 3.79827,-0.81246 5.35231,-1.47431 1.50055,-0.63908 2.77618,-1.44475 3.79674,-2.43937"
       id="path15830"
       sodipodi:nodetypes="csc" />
    <path
       style="fill:url(#linearGradient19888);fill-opacity:1;stroke:none;stroke-width:2.64583;stroke-linecap:round;stroke-linejoin:round;stroke-dasharray:none"
       d="m 56.21067,127.52262 c -0.29663,-0.32777 -0.34208,-0.98595 -0.34208,-4.95235 v -4.57434 l -2.63552,-1.73261 C 43.3933,109.79454 35.93075,101.45158 30.78765,91.169814 29.50371,88.603084 27.71854,84.357361 27.43681,83.200526 l -0.13843,-0.568438 h 60.070413 c 38.946507,0 60.070417,0.07098 60.070417,0.201853 0,0.506219 -1.63533,4.529053 -2.98497,7.342903 -5.31379,11.078486 -13.53024,20.225376 -23.93845,26.649276 l -1.60197,0.98872 v 4.7008 c 0,4.29155 -0.0329,4.73058 -0.37801,5.0429 -0.34816,0.3151 -2.80851,0.34209 -31.180507,0.34209 -29.578483,0 -30.816133,-0.015 -31.144633,-0.37801 z m 31.697293,-11.82453 c 2.80046,-0.23571 3.30729,-0.41267 3.30729,-1.15472 0,-0.52683 -0.66518,-0.94274 -1.32371,-0.82764 -3.293213,0.57566 -17.420513,0.66485 -21.517263,0.13584 -1.56628,-0.20225 -1.67275,-0.19048 -2.01539,0.22273 -0.44032,0.53104 -0.44881,0.68726 -0.0586,1.07749 0.85381,0.85382 14.00405,1.1863 21.607643,0.5463 z M 62.79324,114.48898 c 0,-0.67902 -0.0509,-0.72164 -1.75702,-1.47284 -5.31837,-2.34161 -10.5954,-6.33076 -14.69612,-11.10945 -3.75404,-4.374699 -6.13146,-8.057966 -9.21647,-14.278909 -1.20269,-2.425176 -2.32662,-4.463114 -2.49767,-4.528746 -0.43378,-0.166457 -0.96549,0.213026 -1.04468,0.745561 -0.14108,0.949114 3.61466,8.408318 6.30314,12.518555 2.30286,3.520645 4.19045,5.896359 6.88666,8.667489 4.08638,4.19994 7.41169,6.65673 12.19901,9.01283 3.04461,1.49841 3.82315,1.58913 3.82315,0.44551 z"
       id="path19880" />
    <path
       style="fill:url(#linearGradient21697);fill-opacity:1;stroke:none;stroke-width:2.64583;stroke-linecap:round;stroke-linejoin:round;stroke-dasharray:none"
       d="m 46.25289,79.578193 c 1.19644,-7.443986 4.3004,-12.787844 9.64165,-16.59927 6.84861,-4.887069 15.96165,-5.702586 23.1684,-2.073323 4.42045,2.226106 8.902973,6.550255 10.834563,10.451756 1.29931,2.624423 2.39321,6.370016 2.39321,8.194516 v 1.122542 H 69.18369 46.0767 Z m 3.84482,-1.536782 c 1.1762,-2.377321 2.72899,-5.85347 2.72899,-6.109232 0,-0.164616 -0.25397,-0.435216 -0.56436,-0.601334 -0.76665,-0.410292 -1.23139,0.09859 -2.50126,2.738715 -1.11252,2.313024 -1.48953,3.693247 -1.20875,4.424995 0.25448,0.663133 1.11845,0.409794 1.54538,-0.453144 z m 6.52923,-9.320747 c 0,-0.566539 2.87366,-3.414985 4.51889,-4.479261 2.89949,-1.87561 5.17282,-2.427052 9.86364,-2.392619 4.12748,0.0303 4.56367,-0.0939 4.14661,-1.180714 -0.22442,-0.58484 -2.8071,-0.859364 -6.3727,-0.677383 -4.85762,0.247917 -8.73104,1.951143 -11.86082,5.215448 -1.59163,1.660025 -2.19422,2.68433 -1.95144,3.317028 0.1833,0.477703 1.65582,0.653338 1.65582,0.197501 z"
       id="path21604" />
    <path
       style="fill:url(#linearGradient25141);fill-opacity:1;stroke:none;stroke-width:2.64583;stroke-linecap:round;stroke-linejoin:round;stroke-dasharray:none"
       d="m 94.198063,79.98014 c -0.32734,-3.162552 -0.80933,-5.198713 -1.82512,-7.710099 C 90.367823,67.312686 86.65042,63.003992 81.9832,60.227737 79.84952,58.958531 76.6946,57.724366 74.26867,57.209897 72.21635,56.774666 68.57211,56.672203 66.21941,56.983583 l -1.80822,0.239319 -0.53038,-0.393481 C 63.5891,56.613008 62.22901,55.312263 60.85837,53.938877 57.31911,50.3925 54.27733,46.510351 50.19804,40.333421 47.51336,36.268235 42.05729,27.668015 42.12195,27.603359 c 0.033,-0.03299 0.77782,-0.26116 1.65521,-0.507056 1.77374,-0.497112 3.96144,-1.474488 5.04854,-2.255488 0.39214,-0.281734 0.78028,-0.512246 0.86254,-0.512246 0.0823,0 1.34824,1.099325 2.81329,2.442942 19.03984,17.461479 30.58985,30.153748 39.770973,43.70419 2.33873,3.451719 6.3763,9.995442 6.3763,10.334106 0,0.04612 -0.98015,0.08385 -2.1781,0.08385 h -2.1781 z"
       id="path25133" />
    <path
       style="fill:url(#linearGradient25220);fill-opacity:1;stroke:none;stroke-width:2.64583;stroke-linecap:round;stroke-linejoin:round;stroke-dasharray:none"
       d="m 120.47235,135.57072 c -2.49283,-1.32337 -4.71151,-2.87694 -6.89221,-4.82604 l -1.07352,-0.9595 3.11978,-0.0731 3.11981,-0.0731 0.61613,-0.41802 c 0.39614,-0.26877 0.7484,-0.68345 0.98661,-1.16146 l 0.37047,-0.74344 0.003,-4.24657 0.003,-4.24657 1.22277,-0.76736 c 0.67254,-0.42204 1.28498,-0.76735 1.36099,-0.76735 0.23143,0 2.13487,2.05114 2.98405,3.21558 1.18369,1.62312 1.9213,2.85057 2.96304,4.93078 0.96883,1.93463 2.31146,4.88667 2.24465,4.9353 -0.14653,0.10664 -9.63089,5.91895 -9.65478,5.91673 -0.0167,-0.002 -0.63468,-0.32371 -1.3735,-0.71592 z"
       id="path25212" />
    <path
       style="fill:url(#linearGradient26096);fill-opacity:1;stroke:none;stroke-width:2.64583;stroke-linecap:round;stroke-linejoin:round;stroke-dasharray:none"
       d="m 40.82697,25.868981 -0.10922,-0.158735 0.36256,-0.286625 c 1.61602,-1.277559 3.31608,-2.10343 5.33347,-2.59094 0.52435,-0.126709 1.3258,-0.276636 1.4755,-0.276019 0.0436,1.8e-4 0.1881,0.100833 0.33068,0.230396 l 0.25321,0.230077 -0.38111,0.27768 c -1.42301,1.036902 -3.21601,1.813928 -5.49677,2.382136 -0.47837,0.119177 -1.55186,0.350764 -1.62592,0.350764 -0.0182,0 -0.0823,-0.07143 -0.1424,-0.158734 z"
       id="path26088" />
    <path
       style="fill:#4d4d4d;stroke:none;stroke-width:2.64583;stroke-linecap:round;stroke-linejoin:round;stroke-dasharray:none"
       d="m 123.20502,142.96432 c 0,-0.0426 0.0692,-0.44958 0.15142,-0.90433 0.2576,-1.42578 0.20481,-2.42826 -0.22365,-4.24656 -0.0444,-0.18839 0.54028,-0.57949 4.60446,-3.07993 l 4.65532,-2.86412 0.37825,0.41866 c 0.80933,0.89586 2.02888,1.59081 3.91969,2.23365 0.62529,0.21259 1.17108,0.41599 1.21285,0.45201 0.1505,0.12978 -2.04202,1.84605 -4.00335,3.13376 -2.78075,1.82568 -5.47643,3.1272 -9.17853,4.43158 -1.55276,0.54708 -1.51942,0.53774 -1.51646,0.42528 z"
       id="path26167" />
    <path
       style="fill:url(#linearGradient26177);fill-opacity:1;stroke:none;stroke-width:2.64583;stroke-linecap:round;stroke-linejoin:round;stroke-dasharray:none"
       d="m 123.34475,142.6138 c 0.17645,-0.93971 0.19026,-3.04929 0.0257,-3.92084 -0.0921,-0.4876 -0.16743,-0.91487 -0.16743,-0.94948 0,-0.0346 0.40436,-0.32924 0.89861,-0.65472 1.06804,-0.70336 8.19382,-5.10569 8.26426,-5.10569 0.0269,0 0.16753,0.14103 0.31258,0.3134 0.63238,0.75154 2.0584,1.57236 3.85706,2.22015 0.59685,0.21496 1.13075,0.43185 1.18645,0.48198 0.11403,0.1027 -0.0378,0.24108 -1.4985,1.36593 -3.31229,2.55068 -6.81833,4.43069 -11.16012,5.9843 -1.94617,0.69639 -1.7952,0.67312 -1.71857,0.26497 z"
       id="path26169" />
    <path
       style="fill:url(#linearGradient26187);fill-opacity:1;stroke:none;stroke-width:2.64583;stroke-linecap:round;stroke-linejoin:round;stroke-dasharray:none"
       d="m 143.33814,163.1031 c -7.32673,-3.35933 -13.23305,-5.33995 -20.12942,-6.75023 -0.80139,-0.16388 -1.46994,-0.31083 -1.48569,-0.32658 -0.0156,-0.0156 0.15103,-0.51657 0.37061,-1.11294 1.39107,-3.7782 1.7023,-6.84638 0.97721,-9.63329 l -0.0946,-0.36382 1.68523,-0.55746 c 5.62499,-1.8607 10.62228,-4.62408 14.28973,-7.90188 l 0.69223,-0.61866 0.73287,0.65289 c 1.33889,1.19273 2.72044,2.05757 4.27733,2.67758 1.25232,0.49871 2.18681,0.72865 4.08247,1.00453 0.22246,0.0324 0.24177,0.0543 0.20426,0.23189 -1.53946,7.2892 -1.96409,12.52215 -1.53999,18.97807 0.0581,0.88429 0.12362,1.72291 0.1456,1.86359 0.0384,0.2454 0.0352,0.24984 -0.0789,0.10962 -0.0654,-0.0804 -1.61454,-2.3064 -3.44255,-4.94668 l -3.32367,-4.8005 0.25022,-0.35173 c 0.34242,-0.48136 0.51667,-0.844 0.70765,-1.4727 0.14065,-0.46313 0.15748,-0.64847 0.126,-1.38766 -0.0397,-0.93083 -0.14299,-1.31014 -0.61159,-2.24565 -0.16695,-0.33327 -0.37589,-0.62034 -0.56623,-0.77793 -1.22844,-1.01716 -2.39462,-1.4481 -3.91258,-1.44583 -2.85102,0.004 -5.23047,1.56471 -5.74982,3.7707 -0.14423,0.61269 -0.10748,1.91855 0.0759,2.69576 0.20907,0.88614 0.61952,2.1337 0.75258,2.28748 0.16383,0.18936 1.75821,1.05106 2.47795,1.33927 0.81656,0.32697 1.48574,0.44918 2.23819,0.40875 l 0.64183,-0.0345 3.6621,4.50377 c 2.01416,2.47705 3.71186,4.56128 3.77266,4.63163 0.0608,0.0703 0.0808,0.12732 0.0444,0.12663 -0.0364,0 -0.60878,-0.25003 -1.27199,-0.55412 z"
       id="path26179" />
    <path
       style="fill:url(#linearGradient28859);fill-opacity:1;stroke:none;stroke-width:2.64583;stroke-linecap:round;stroke-linejoin:round;stroke-dasharray:none"
       d="m 94.852223,37.447401 c -3.555,-0.927248 -5.40573,-3.183435 -5.70884,-6.959536 l -0.15571,-1.939568 2.01692,0.188285 c 2.72847,0.254707 5.15917,0.90781 7.35476,1.976128 2.301447,1.119831 3.285777,2.438805 3.285777,4.402791 0,2.290514 -0.0508,2.312001 -2.524947,1.068562 -2.38471,-1.19848 -3.44752,-1.383032 -3.72972,-0.647641 -0.25215,0.657074 -0.0274,0.910492 1.52447,1.718579 1.1289,0.587838 1.24053,0.712021 0.63765,0.709348 -0.40195,-0.0019 -1.61711,-0.23441 -2.70036,-0.516948 z"
       id="path28847" />
    <path
       style="fill:url(#linearGradient28889);fill-opacity:1;stroke:none;stroke-width:2.64583;stroke-linecap:round;stroke-linejoin:round;stroke-dasharray:none"
       d="m 114.86107,47.414599 c -0.11719,-0.127899 -0.32295,-0.441833 -0.45726,-0.697632 -0.21592,-0.411186 -0.24318,-0.59685 -0.23526,-1.60197 0.008,-0.991711 0.0522,-1.268854 0.34813,-2.170409 0.41511,-1.264745 1.03045,-2.600018 1.81791,-3.944787 0.92991,-1.58806 0.78994,-1.514467 1.31927,-0.693758 1.38395,2.145818 2.00812,4.197691 1.74452,5.734894 -0.20952,1.221859 -0.97734,2.413682 -2.03482,3.158508 l -0.31007,0.218385 v -1.225627 c 0,-1.129467 -0.018,-1.243727 -0.23024,-1.456309 -0.30927,-0.309838 -0.88312,-0.310483 -1.19227,-0.0013 -0.20675,0.206756 -0.23223,0.348726 -0.25866,1.44177 -0.0385,1.593265 -0.0843,1.704234 -0.51125,1.238274 z"
       id="path28849" />
    <path
       style="fill:url(#linearGradient28867);fill-opacity:1;stroke:none;stroke-width:2.64583;stroke-linecap:round;stroke-linejoin:round;stroke-dasharray:none"
       d="m 102.5163,58.768563 c -1.34745,-0.481314 -2.641067,-1.873983 -3.706307,-3.990073 -0.37074,-0.736454 -1.3512,-3.125724 -1.3026,-3.174312 0.0711,-0.07115 2.981907,0.843058 3.884637,1.220084 2.61128,1.090583 4.03294,2.435619 4.03188,3.81458 0,0.622493 -0.0814,1.033528 -0.20349,1.033528 -0.10277,0 -1.04759,-1.374412 -1.33509,-1.942155 -0.32269,-0.637175 -0.56944,-0.848373 -0.99118,-0.848373 -0.40241,0 -0.73285,0.260519 -0.83212,0.65604 -0.0801,0.31933 0.45236,1.38789 1.23423,2.476666 0.31885,0.443995 0.57973,0.827691 0.57973,0.85266 0,0.100555 -1.00645,0.02754 -1.35969,-0.09864 z"
       id="path28851" />
    <path
       style="fill:#44aa00;fill-opacity:1;stroke:none;stroke-width:2.64583;stroke-linecap:round;stroke-linejoin:round;stroke-dasharray:none"
       d="m 103.82432,80.49785 c 0.85301,-0.705805 3.02241,-2.944172 4.29326,-4.429736 1.60351,-1.874457 2.60286,-3.104094 4.91776,-6.050965 1.642,-2.090246 2.13399,-2.641844 3.08833,-3.462322 1.46455,-1.259189 3.23285,-3.028659 4.07386,-4.076549 3.0789,-3.836321 4.45238,-8.192894 4.45238,-14.122675 0,-0.787837 0.0407,-1.328579 0.10009,-1.328579 0.055,0 0.66077,0.263229 1.34609,0.584954 l 1.24601,0.584954 -0.22987,0.244695 c -0.40362,0.429622 -0.30782,0.771787 0.68916,2.46113 1.9795,3.354282 3.97261,7.612912 3.8296,8.18266 -0.10353,0.412563 -0.80949,1.026168 -1.41343,1.228519 -1.1957,0.400629 -3.17783,0.09942 -5.15424,-0.783262 -1.27616,-0.569941 -1.65941,-0.621691 -2.00975,-0.271351 -0.28088,0.280876 -0.33808,0.665337 -0.15102,1.014886 0.13533,0.25287 1.45002,0.885208 2.73664,1.31626 2.52126,0.844708 4.74178,0.793212 6.15616,-0.14277 0.22066,-0.146039 0.41609,-0.21446 0.45104,-0.157921 0.0339,0.05487 0.0882,0.647035 0.12075,1.315926 0.11033,2.270842 -0.49612,6.294858 -1.42941,9.484392 -0.11644,0.397906 -0.22571,0.738494 -0.24286,0.756859 -0.0172,0.01836 -0.40648,-0.08518 -0.86521,-0.230093 -2.40692,-0.760343 -4.44635,-0.882046 -5.63809,-0.336446 -0.74435,0.340778 -0.60817,0.441502 -2.07743,-1.536407 -1.04439,-1.405958 -1.24865,-1.594381 -1.73223,-1.598059 -0.314,-0.0024 -0.69294,0.46614 -0.69294,0.856779 0,0.281813 0.19503,0.613103 0.99142,1.684181 2.16673,2.914036 2.57175,3.157498 3.89448,2.341049 0.60648,-0.374327 0.65998,-0.387458 1.56589,-0.384243 0.51585,0.0019 1.19374,0.06439 1.50638,0.13903 1.11969,0.267298 2.37712,0.666369 2.37712,0.75442 0,0.191407 -0.87725,1.833279 -1.42597,2.668894 -0.74396,1.132896 -2.32985,2.706169 -3.30777,3.281455 l -0.74668,0.439248 -10.61816,-7.93e-4 -10.61812,-7.94e-4 z"
       id="path28960" />
    <path
       style="fill:url(#linearGradient29041);fill-opacity:1;stroke:none;stroke-width:2.64583;stroke-linecap:round;stroke-linejoin:round;stroke-dasharray:none"
       d="m 106.12138,78.342943 c 1.29479,-1.335836 3.85228,-4.289144 5.68333,-6.562907 2.08303,-2.586654 4.11213,-4.854967 5.42084,-6.059908 5.01694,-4.619186 7.14329,-9.08903 7.41753,-15.592518 0.0659,-1.563211 0.17402,-2.842202 0.24022,-2.842202 0.0662,0 0.60264,0.19989 1.19208,0.444204 0.95938,0.397645 1.04648,0.484899 0.83082,0.832477 -0.20021,0.322707 -0.10679,0.640387 0.55335,1.881235 2.28369,4.292642 3.42206,6.593594 3.74882,7.577407 l 0.36288,1.092492 -0.54565,0.545647 c -0.50131,0.501296 -0.68387,0.545645 -2.24626,0.545645 -1.44235,0 -1.97713,-0.107212 -3.5211,-0.70593 l -1.82049,-0.705929 -0.43879,0.438785 c -0.7475,0.747501 -0.27461,1.335 1.68185,2.089491 2.65872,1.025308 5.41245,1.198978 6.84602,0.431758 0.24468,-0.130945 0.50667,-0.175818 0.58219,-0.09971 0.24124,0.243057 0.0743,3.868862 -0.27136,5.894901 -0.48403,2.836939 -1.14845,5.203936 -1.43039,5.095748 -1.7466,-0.670229 -5.05624,-0.903332 -6.45094,-0.454342 -0.36325,0.116937 -0.63667,-0.117536 -1.65365,-1.418029 -1.4007,-1.791195 -1.84729,-2.047061 -2.39416,-1.371693 -0.20603,0.254413 -0.37457,0.534683 -0.37457,0.622821 0,0.323088 1.70786,2.70568 2.59027,3.613616 1.01857,1.04802 1.32054,1.112925 2.42464,0.521155 0.42424,-0.227378 1.15359,-0.413412 1.62076,-0.413412 0.76473,0 3.14328,0.507381 3.54635,0.756489 0.0883,0.0546 -0.1663,0.720625 -0.56587,1.480063 -0.76462,1.453346 -2.27018,3.168526 -3.67374,4.185269 l -0.8368,0.606174 h -10.43614 -10.43615 z"
       id="path29031" />
    <path
       style="fill:url(#linearGradient29049);fill-opacity:1;stroke:none;stroke-width:2.64583;stroke-linecap:round;stroke-linejoin:round;stroke-dasharray:none"
       d="m 128.6988,79.954822 c 0.40592,-0.449302 0.98721,-1.193443 1.29175,-1.653646 0.30456,-0.460203 0.62862,-0.836732 0.72014,-0.836732 0.0915,0 0.80005,0.148112 1.57451,0.329137 1.41153,0.329946 5.1262,0.331451 5.87388,0.0024 0.27295,-0.120126 0.35407,0.04281 0.45794,0.92002 0.13896,1.173252 0.41527,1.642348 0.96737,1.642348 0.69247,0 0.89342,-0.540896 0.76595,-2.061636 -0.20643,-2.462078 -0.60026,-2.734897 -3.13434,-2.171121 -1.613,0.358857 -2.91256,0.318106 -4.82621,-0.151333 -0.69591,-0.170715 -0.86074,-0.291269 -0.7556,-0.552628 0.73912,-1.837152 1.60497,-5.041206 1.98004,-7.326971 0.40275,-2.454505 0.51128,-2.809928 0.88903,-2.911358 1.20414,-0.323334 2.50123,0.07398 3.70731,1.135615 0.71327,0.627854 1.09596,0.821957 1.52339,0.772697 0.83545,-0.09628 1.09972,-0.851416 1.15038,-3.287233 0.0418,-2.011387 0.0241,-2.105478 -0.42629,-2.275687 -0.80807,-0.305289 -1.28707,0.399526 -1.28707,1.893859 v 1.25431 l -0.56843,-0.385887 c -1.00481,-0.682122 -1.69592,-0.882497 -3.04376,-0.882497 h -1.31898 l -0.12615,-1.188558 c -0.21445,-2.020472 -0.73433,-4.002212 -1.56544,-5.967484 -0.73152,-1.729714 -2.62165,-5.369229 -3.42593,-6.596713 -0.18378,-0.280467 -0.27831,-0.50994 -0.2101,-0.50994 0.26323,0 2.38358,1.377442 4.18594,2.719324 4.3778,3.25932 7.54674,7.650771 9.27391,12.851511 1.31221,3.951303 1.75988,7.100641 1.75988,12.380693 v 3.674448 h -8.08556 -8.08559 z"
       id="path29033" />
  </g>
</svg>
